<?xml version="1.0" standalone="no"?>
<!DOCTYPE svg PUBLIC "-//W3C//DTD SVG 20010904//EN"
 "http://www.w3.org/TR/2001/REC-SVG-20010904/DTD/svg10.dtd">
<svg version="1.0" xmlns="http://www.w3.org/2000/svg"
 width="284.000000pt" height="177.000000pt" viewBox="0 0 284.000000 177.000000"
 preserveAspectRatio="xMidYMid meet">

<g transform="translate(0.000000,177.000000) scale(0.100000,-0.100000)"
fill="#000000" stroke="none">
<path d="M1 1614 c0 -115 4 -153 12 -145 20 20 65 13 83 -14 26 -40 11 -72
-44 -98 l-48 -22 -3 -60 c-2 -54 0 -61 21 -70 30 -13 30 -47 0 -60 l-22 -10 0
-297 c0 -164 2 -298 5 -298 2 0 21 11 41 25 42 28 91 32 133 10 16 -8 32 -11
36 -7 3 4 6 2 4 -3 -1 -6 6 -28 16 -50 12 -28 16 -54 12 -87 -4 -31 -2 -49 6
-52 7 -3 2 -3 -10 -1 -12 3 -24 1 -28 -5 -3 -5 -1 -10 4 -10 6 0 11 -4 11 -9
0 -4 -12 -8 -27 -7 -16 1 -27 -4 -26 -9 1 -10 -54 -6 -127 8 -23 4 -41 17 -36
26 3 4 1 13 -4 21 -5 9 -9 -67 -9 -188 l-1 -202 143 1 c134 2 141 2 117 18
-13 9 -33 24 -44 34 -20 18 -20 18 6 2 l27 -17 4 49 3 48 2 -52 c2 -46 5 -53
30 -65 15 -8 51 -15 79 -17 41 -1 56 2 72 18 11 11 32 23 45 27 27 7 82 -16
79 -33 -2 -8 47 -12 153 -12 150 -2 156 -1 174 21 l18 23 20 -22 c18 -21 26
-22 163 -22 l145 0 19 35 c19 35 81 82 92 70 4 -4 6 -28 4 -55 l-2 -49 186 -1
c116 -1 184 2 181 8 -4 5 -2 12 4 16 5 3 10 -1 10 -9 0 -13 12 -16 59 -16 57
0 59 1 70 31 14 40 14 42 -1 33 -17 -11 28 50 49 67 10 7 7 1 -6 -13 -23 -26
-21 -58 2 -40 7 5 21 6 32 2 19 -7 18 -8 -5 -15 -14 -4 -31 -15 -38 -24 -8 -9
-10 -10 -6 -2 5 9 3 12 -4 7 -14 -9 -15 -16 -2 -36 9 -13 11 -13 20 0 7 10 10
11 10 2 0 -10 37 -12 164 -11 162 1 164 1 160 23 -2 11 -8 22 -14 24 -5 2 -10
8 -10 13 0 6 9 5 21 -1 19 -11 20 -10 10 9 -13 24 -31 36 -31 22 0 -18 -25
-12 -38 9 -7 12 -17 18 -22 15 -6 -3 -10 -1 -10 4 0 6 -11 11 -25 11 -14 0
-24 5 -23 12 2 7 -7 14 -19 16 -13 2 -23 -1 -23 -6 0 -5 -19 -12 -42 -16 -23
-4 -51 -14 -61 -23 -10 -10 -25 -18 -34 -19 -12 -2 -11 2 5 19 12 12 20 25 19
29 -1 3 2 10 7 15 5 5 6 3 2 -4 -9 -17 -5 -16 30 2 34 18 145 20 177 4 12 -6
37 -25 55 -42 17 -17 32 -27 32 -23 0 5 6 3 14 -4 8 -6 12 -19 9 -27 -4 -11
-3 -14 6 -9 8 5 16 -3 24 -23 l12 -32 104 2 c57 1 98 4 92 8 -7 5 -6 14 5 29
8 12 19 20 24 17 5 -3 11 -1 15 5 3 5 1 10 -6 10 -7 0 -10 2 -7 5 3 3 19 -2
37 -12 34 -19 37 -46 7 -51 -11 -3 -16 0 -11 7 3 6 11 9 16 6 5 -4 9 -2 9 4 0
16 -18 22 -27 9 -12 -20 -43 -19 -36 1 4 12 3 13 -6 5 -24 -22 -2 -39 56 -42
47 -2 54 -1 45 11 -9 10 -8 18 3 33 13 18 15 18 29 2 9 -10 11 -13 4 -8 -16
13 -31 13 -23 0 3 -5 1 -10 -6 -10 -8 0 -8 -5 2 -16 11 -13 23 -15 64 -9 27 4
71 8 98 8 l47 0 0 164 c0 115 -3 162 -11 157 -6 -3 -24 6 -40 22 -16 15 -29
23 -29 16 0 -6 7 -15 16 -20 12 -7 13 -11 5 -17 -7 -4 -20 2 -30 14 l-18 20
-28 -29 c-33 -35 -40 -33 -25 4 5 15 6 25 1 21 -5 -3 -16 4 -24 15 -7 11 -17
17 -22 12 -5 -4 -5 -1 -1 6 4 6 0 19 -9 28 -9 9 -13 19 -10 22 3 4 9 1 13 -5
5 -7 13 -9 21 -3 8 4 19 7 25 6 6 -2 8 -1 3 1 -4 3 -4 10 0 16 4 7 1 7 -9 -1
-13 -10 -18 -10 -24 -1 -4 7 1 18 12 27 19 14 19 15 0 8 -16 -5 -17 -4 -6 9
17 20 7 19 -32 -5 -20 -12 -51 -20 -77 -20 -36 0 -49 6 -77 34 -19 19 -34 44
-34 55 0 18 2 20 14 9 7 -7 11 -19 8 -27 -4 -10 -1 -13 11 -8 10 4 14 2 11 -7
-7 -19 43 -43 58 -28 7 7 23 12 37 13 l26 1 -25 8 c-25 8 -12 14 23 11 9 -1
17 3 17 9 0 6 -4 9 -8 6 -4 -2 -8 3 -8 13 0 12 6 17 17 14 9 -3 20 0 23 6 5 7
0 9 -11 6 -12 -4 -10 -2 4 6 11 6 23 22 26 35 6 32 -27 76 -50 67 -10 -4 -14
-2 -10 4 8 14 -15 23 -56 23 -35 0 -27 -16 13 -23 14 -2 6 -3 -17 -1 -24 2
-43 -1 -43 -6 0 -6 -8 -10 -17 -10 -15 0 -14 -2 3 -16 18 -15 18 -15 -7 -10
-23 5 -28 2 -33 -20 -4 -13 -4 -29 -1 -34 4 -6 1 -10 -6 -10 -17 0 -4 68 18
92 61 67 145 62 208 -13 22 -27 26 -41 23 -75 -2 -35 -1 -40 11 -31 11 9 15 9
18 0 3 -7 10 -13 15 -13 6 0 8 3 5 7 -4 3 -1 13 6 21 10 13 9 15 -6 9 -11 -4
-16 -3 -12 4 4 5 15 7 24 4 10 -3 24 1 31 10 11 13 8 15 -18 15 -32 0 -42 17
-42 78 0 17 -4 32 -10 32 -5 0 -10 10 -10 23 0 25 62 97 82 96 7 0 3 -5 -9
-11 -26 -13 -29 -21 -38 -104 -6 -58 -5 -62 16 -67 19 -5 20 -8 9 -21 -10 -13
-10 -16 3 -16 9 0 22 6 29 13 7 8 23 19 36 26 16 8 22 21 22 43 0 25 -3 29
-12 20 -14 -14 -57 -16 -77 -3 -10 6 -10 13 -2 29 11 21 63 38 81 27 6 -4 10
6 10 24 0 26 -4 31 -25 31 -14 0 -25 5 -25 10 0 6 11 8 25 4 l25 -6 0 76 c0
54 -4 76 -12 76 -9 0 -8 4 2 10 12 8 11 10 -7 10 -27 0 -29 12 -7 34 12 13 12
16 2 16 -8 0 -20 -6 -28 -12 -8 -7 -6 -3 5 10 18 22 18 23 0 16 -13 -5 -16 -4
-11 4 4 7 17 12 29 13 12 0 17 3 10 5 -7 3 -9 12 -6 20 9 24 -5 16 -44 -23
-20 -21 -40 -37 -44 -36 -4 1 -21 -2 -38 -7 -19 -5 -41 -5 -54 0 -19 8 -17 9
13 9 20 1 44 7 55 15 11 7 23 13 27 12 3 0 9 1 12 4 3 3 -4 6 -14 7 -11 1 -20
-2 -20 -8 0 -5 -3 -8 -7 -7 -5 1 -25 -2 -46 -7 -56 -11 -110 10 -157 61 -28
30 -40 53 -40 73 0 33 25 37 42 6 8 -13 7 -16 -1 -11 -6 4 -11 2 -11 -3 0 -6
5 -11 12 -11 6 0 8 -3 4 -7 -4 -5 -14 1 -22 11 -10 14 -14 16 -14 5 0 -8 14
-30 30 -49 26 -32 29 -33 23 -10 -6 25 -6 25 14 5 13 -12 16 -23 10 -27 -18
-11 54 -34 92 -29 20 2 29 6 21 8 -44 13 -45 14 -17 29 30 16 52 10 43 -12 -3
-8 0 -11 9 -7 8 3 12 10 8 16 -3 5 -2 7 4 4 6 -4 21 5 33 18 13 14 20 25 16
25 -4 0 0 10 8 22 21 29 22 55 2 39 -11 -9 -15 -8 -20 5 -9 24 -7 31 5 14 9
-12 10 -11 6 8 -5 23 8 31 16 10 4 -9 6 -8 6 2 1 20 -41 92 -57 98 -8 2 -10
-2 -6 -13 5 -13 2 -15 -22 -9 -28 7 -36 14 -35 31 1 11 60 12 67 2 9 -15 26
-10 20 7 -3 9 -2 12 5 9 5 -4 8 -12 6 -18 -2 -7 4 -28 13 -47 10 -19 20 -52
24 -72 4 -21 11 -38 16 -38 6 0 10 -8 11 -17 0 -13 3 -10 10 7 20 49 -16 280
-43 280 -4 0 -8 18 -8 40 0 45 -1 44 34 30 25 -9 26 -8 26 24 0 31 -3 34 -34
38 -19 2 -42 -2 -52 -9 -23 -17 -65 -17 -90 1 -11 8 -30 16 -43 18 -22 3 -22
4 7 14 24 9 29 9 26 0 -5 -12 35 -36 60 -36 7 0 25 9 39 20 27 22 42 26 32 10
-4 -6 7 -10 24 -10 l31 0 0 59 0 60 -142 0 c-78 0 -150 -5 -160 -10 -22 -12
-24 -47 -3 -55 8 -4 15 -13 15 -20 0 -8 10 -19 23 -24 12 -5 17 -9 10 -9 -21
-2 -43 11 -43 24 0 7 -7 15 -15 19 -18 7 -20 47 -3 64 9 9 -34 12 -195 12
l-208 0 27 -45 c23 -41 24 -50 2 -46 -5 0 -8 -3 -8 -7 0 -15 13 -22 25 -14 6
4 2 -1 -8 -10 -22 -20 -37 -23 -37 -7 0 5 -4 8 -9 4 -5 -3 -12 -1 -16 5 -3 5
-2 10 2 10 5 0 9 8 9 19 0 11 -5 17 -13 14 -7 -3 -10 -10 -6 -16 3 -6 1 -7 -5
-3 -6 4 -8 14 -5 23 4 11 2 14 -5 9 -18 -11 -36 32 -20 51 7 9 -6 4 -30 -11
-23 -15 -47 -24 -52 -21 -5 3 -13 -3 -19 -12 -5 -10 -12 -15 -16 -12 -3 4 1
14 10 22 19 20 19 37 0 37 -8 0 -15 -4 -15 -10 0 -5 -4 -10 -10 -10 -5 0 -7 7
-4 15 5 13 -29 15 -270 15 -267 0 -276 -1 -267 -19 9 -15 7 -18 -12 -18 -12 0
-39 -3 -59 -7 -27 -6 -52 -3 -94 12 -31 11 -51 21 -45 23 6 2 -54 6 -135 7
l-146 3 7 -33 c10 -44 10 -44 46 -52 18 -3 30 -8 27 -11 -2 -3 -19 -1 -36 4
-25 8 -32 7 -32 -4 0 -8 -15 -17 -36 -21 -45 -8 -114 11 -114 33 0 12 -8 14
-37 10 l-38 -5 37 10 c27 8 40 19 47 40 l10 28 -115 0 c-95 0 -114 -3 -114
-15 0 -8 -5 -15 -10 -15 -6 0 -13 7 -16 15 -5 12 -34 15 -170 15 -103 0 -164
-4 -164 -10 0 -5 -5 -10 -11 -10 -5 0 -7 5 -4 10 4 6 -15 10 -50 10 -42 0 -54
-3 -49 -12 6 -10 4 -10 -7 0 -7 6 -23 12 -36 12 l-24 0 2 -156z m2364 118 c22
-6 30 -10 18 -11 -12 0 -29 -4 -39 -8 -11 -4 -15 -3 -11 4 8 13 -15 23 -46 22
-20 -1 -20 -2 3 -9 22 -7 20 -8 -14 -9 -37 -1 -39 0 -20 14 19 15 31 15 109
-3z m-2263 -26 c-2 -9 2 -16 8 -16 5 0 10 9 10 20 0 11 3 20 8 20 4 0 7 -11 7
-25 0 -20 -5 -25 -26 -25 -22 0 -27 4 -25 25 0 14 6 23 11 21 6 -1 9 -10 7
-20z m268 4 c0 -5 -7 -10 -15 -10 -8 0 -15 5 -15 10 0 6 7 10 15 10 8 0 15 -4
15 -10z m700 -5 c0 -8 -4 -15 -10 -15 -5 0 -10 7 -10 15 0 8 5 15 10 15 6 0
10 -7 10 -15z m1170 4 c11 -8 8 -9 -13 -4 -21 4 -27 3 -21 -6 4 -8 3 -9 -4 -5
-7 4 -12 2 -12 -3 0 -6 8 -11 18 -12 11 0 12 -2 4 -6 -7 -3 -20 1 -28 8 -14
12 -14 14 2 26 21 16 34 16 54 2z m420 -4 c0 -8 -7 -15 -15 -15 -16 0 -20 12
-8 23 11 12 23 8 23 -8z m-332 -1 c23 -7 30 -38 11 -49 -7 -5 -5 -15 6 -31 17
-26 10 -34 -9 -10 -19 25 -60 24 -71 -1 -5 -13 -13 -23 -17 -23 -11 0 -10 5 4
36 10 22 10 28 -5 39 -16 11 -14 14 15 28 38 19 36 19 66 11z m52 2 c0 -3 -4
-8 -10 -11 -5 -3 -10 -1 -10 4 0 6 5 11 10 11 6 0 10 -2 10 -4z m19 -27 c-8
-5 -21 -8 -29 -8 -8 0 -5 4 8 9 12 5 22 15 23 22 0 10 2 10 6 -1 3 -7 -1 -17
-8 -22z m-2000 5 c2 -2 -11 -4 -31 -4 -49 0 -104 -20 -86 -31 10 -7 10 -9 -2
-10 -8 -1 -21 -2 -29 -3 -22 -2 -61 -84 -61 -128 0 -24 4 -37 10 -33 6 4 10 3
9 -2 -5 -32 3 -51 26 -57 23 -6 49 -38 50 -61 0 -11 45 -16 45 -5 0 4 7 7 16
7 14 0 14 -2 -2 -14 -17 -13 -15 -14 23 -9 23 3 52 10 65 16 21 10 21 10 6 -3
-10 -8 -15 -17 -12 -20 3 -3 -5 -3 -18 0 -18 4 -20 3 -8 -6 12 -9 8 -11 -20
-9 -19 1 -39 5 -45 8 -5 4 -31 13 -57 21 -29 8 -48 19 -48 28 0 8 -6 22 -13
30 -31 37 -64 173 -38 157 7 -5 22 28 25 57 1 10 88 67 104 67 7 0 11 4 8 9
-6 8 73 3 83 -5z m901 12 c0 -11 -19 -15 -25 -6 -3 5 1 10 9 10 9 0 16 -2 16
-4z m80 -16 c0 -5 -5 -10 -11 -10 -5 0 -7 5 -4 10 3 6 8 10 11 10 2 0 4 -4 4
-10z m-930 -15 c17 -9 30 -13 30 -9 0 4 7 1 15 -6 8 -7 15 -9 15 -4 0 5 7 0
15 -10 8 -11 15 -25 15 -30 -1 -6 -7 0 -14 13 -7 13 -16 19 -19 14 -7 -11 21
-55 31 -49 11 6 5 -119 -6 -140 -5 -11 -8 -24 -5 -30 4 -13 -32 -47 -54 -50
-11 -2 -9 4 7 21 13 14 26 22 30 20 4 -3 8 6 8 20 -1 14 -4 22 -8 20 -11 -7
-6 22 5 32 4 4 5 3 1 -4 -3 -6 -2 -15 4 -18 8 -5 10 13 9 55 -2 50 -8 69 -31
101 -32 44 -35 45 -58 24 -14 -13 -17 -13 -17 -1 0 8 3 15 6 14 22 -2 22 5 1
17 -34 19 -17 19 20 0z m375 -32 c44 -3 99 0 123 5 50 12 53 3 11 -32 -16 -14
-32 -35 -34 -47 -3 -12 -7 -24 -10 -27 -10 -10 -35 -11 -41 -1 -3 5 -2 9 3 8
18 -3 33 1 33 10 0 5 -11 8 -24 7 -14 -2 -27 3 -30 10 -7 19 -56 18 -56 0 0
-8 -5 -18 -10 -21 -6 -4 -9 -1 -8 7 2 7 -7 14 -19 16 -13 2 -23 -1 -23 -7 0
-6 6 -11 13 -11 8 0 14 -7 14 -15 0 -13 -3 -13 -19 2 -10 9 -18 24 -18 34 0
10 -7 24 -15 31 -29 24 -55 52 -55 59 0 4 19 0 43 -9 23 -8 78 -17 122 -19z
m945 17 c0 -11 5 -20 10 -20 6 0 10 7 8 16 -2 10 2 19 8 21 7 2 11 -6 10 -22
-2 -35 -42 -36 -48 0 -3 14 -1 25 3 25 5 0 9 -9 9 -20z m-1730 -51 c0 -5 -7
-9 -15 -9 -15 0 -20 12 -9 23 8 8 24 -1 24 -14z m2508 9 c21 -21 13 -46 -24
-68 -19 -12 -38 -20 -41 -16 -3 3 -13 0 -22 -7 -14 -11 -14 -10 -2 6 8 10 19
16 25 14 16 -6 66 32 66 48 0 8 -12 17 -27 21 -46 10 -49 12 -17 13 16 1 35
-4 42 -11z m-1377 -28 c-31 -27 -60 -32 -45 -9 3 5 9 7 14 4 4 -3 19 4 31 15
13 11 26 19 29 19 3 0 -10 -13 -29 -29z m99 10 c-12 -12 -17 -26 -13 -36 5
-14 2 -16 -21 -10 -18 4 -34 2 -44 -6 -15 -12 -16 -11 -3 5 7 9 20 17 28 17 8
0 24 11 35 25 11 14 24 25 29 25 5 0 0 -9 -11 -20z m77 0 c10 -11 26 -20 37
-20 21 0 17 -10 -6 -14 -7 -1 -19 -5 -25 -9 -9 -6 -11 -3 -7 7 3 8 -4 24 -15
35 -12 12 -16 21 -11 21 6 0 18 -9 27 -20z m1103 10 c-14 -4 -18 -9 -10 -10 9
-1 5 -5 -9 -11 -13 -5 -26 -8 -28 -5 -9 9 30 36 50 35 20 -1 20 -2 -3 -9z
m-2065 -16 c-11 -8 -31 -17 -45 -21 -14 -3 -31 -12 -37 -21 -16 -19 -17 -8 -3
18 6 11 17 17 24 14 8 -3 27 1 43 10 36 19 44 20 18 0z m1691 7 c-10 -4 -24
-20 -31 -37 -10 -22 -14 -24 -14 -10 -1 24 27 56 48 55 13 0 12 -2 -3 -8z
m-1812 -31 c-6 -6 -10 -3 -10 10 0 13 4 16 10 10 7 -7 7 -13 0 -20z m1880 -24
c-6 -21 -40 -56 -54 -56 -4 0 -18 8 -29 18 -22 17 -22 17 13 17 19 0 32 -4 29
-10 -3 -5 4 1 15 15 15 17 18 29 11 42 -14 26 -10 35 6 14 9 -11 12 -29 9 -40z
m-1638 32 c4 -7 4 -10 -1 -6 -4 4 -14 0 -21 -10 -12 -15 -12 -15 -7 6 6 24 18
29 29 10z m1904 -8 c8 -5 11 -10 5 -11 -5 0 -20 -2 -32 -3 -18 -2 -20 0 -12
11 13 15 19 16 39 3z m240 6 c0 -11 -19 -15 -25 -6 -3 5 1 10 9 10 9 0 16 -2
16 -4z m-1185 -67 c14 -15 13 -16 -10 -12 -13 3 -22 9 -19 15 3 5 -2 21 -11
36 l-16 27 20 -25 c12 -14 28 -32 36 -41z m-388 30 c-15 -11 -25 -25 -21 -30
3 -5 0 -9 -5 -9 -6 0 -11 7 -11 15 0 8 -7 15 -15 15 -17 0 -21 -16 -5 -22 6
-2 6 -8 0 -18 -8 -13 -10 -12 -10 3 0 9 -4 17 -9 17 -6 0 -9 8 -8 18 1 14 9
19 29 18 15 -1 28 -5 28 -11 0 -5 8 -2 17 8 10 9 22 17 28 17 5 0 -2 -10 -18
-21z m-643 3 c3 -5 -1 -9 -9 -9 -8 0 -12 4 -9 9 3 4 7 8 9 8 2 0 6 -4 9 -8z
m-73 -32 c8 0 20 5 26 11 9 9 11 7 7 -8 -4 -14 -18 -23 -45 -29 l-39 -9 16
-30 c12 -24 12 -27 1 -15 -8 8 -18 25 -22 38 -5 18 -2 22 15 22 22 0 22 0 5
28 -18 27 -18 27 2 10 11 -10 26 -18 34 -18z m119 10 c-9 -16 -40 -19 -40 -3
0 3 6 3 14 0 8 -3 17 1 20 9 3 8 8 14 11 14 3 0 1 -9 -5 -20z m190 10 c0 -5
-4 -10 -10 -10 -5 0 -10 5 -10 10 0 6 5 10 10 10 6 0 10 -4 10 -10z m1701 -10
c-13 -11 -31 -20 -40 -20 -9 0 0 8 19 19 46 24 50 24 21 1z m60 13 c-10 -4
-10 -7 -1 -13 9 -5 9 -9 1 -14 -6 -4 -11 -2 -11 4 0 8 -6 8 -22 0 -21 -10 -21
-9 2 9 14 11 30 20 35 20 6 0 4 -3 -4 -6z m-1269 -29 c-32 -22 -28 -50 9 -63
17 -6 36 -8 42 -4 6 3 7 1 3 -5 -5 -8 1 -12 14 -12 13 0 19 4 14 11 -4 7 -2
10 5 8 7 -3 12 -8 11 -13 -1 -4 8 -16 20 -26 20 -17 25 -18 58 -5 21 7 49 16
64 19 19 4 26 11 21 22 -3 8 -2 14 3 13 13 -3 48 13 56 25 5 7 8 7 8 1 0 -5
-4 -15 -8 -21 -11 -16 -78 -54 -96 -54 -9 0 -19 -6 -22 -13 -6 -17 -82 -12
-103 8 -10 8 -25 15 -34 15 -10 0 -27 5 -40 12 -12 6 -29 14 -37 18 -24 11
-23 46 1 69 12 11 25 18 28 16 2 -3 -5 -12 -17 -21z m-264 -14 c7 0 33 -19 57
-41 44 -41 66 -87 64 -139 0 -14 -6 2 -13 34 -11 50 -20 65 -57 98 -30 27 -51
38 -66 35 -12 -2 -20 0 -17 4 3 5 -12 9 -32 9 -35 0 -37 -1 -18 -15 21 -16 12
-20 -15 -6 -10 6 -28 7 -40 4 -21 -5 -20 -7 15 -27 23 -13 49 -41 67 -71 25
-42 28 -58 25 -102 -3 -33 -1 -50 5 -46 6 3 7 1 3 -5 -4 -7 -3 -12 3 -12 5 0
12 8 14 18 4 13 5 12 6 -5 1 -30 -19 -40 -36 -18 -9 14 -13 15 -13 4 0 -8 8
-24 18 -37 17 -22 18 -22 52 -5 27 13 31 18 17 21 -14 3 -16 7 -6 18 14 17 33
19 23 2 -4 -7 3 -4 15 6 16 15 20 27 16 47 -3 15 -2 30 3 33 6 4 8 -3 5 -16
-4 -19 -3 -20 7 -8 9 12 10 10 5 -10 -9 -33 -56 -92 -86 -107 -13 -7 -24 -18
-24 -25 0 -31 -146 -35 -158 -4 -5 11 0 11 23 0 17 -9 45 -13 67 -10 21 2 44
5 51 5 10 1 10 5 -2 17 -9 8 -16 22 -16 30 0 8 -5 14 -11 14 -6 0 -8 -9 -3
-22 6 -19 5 -20 -8 -8 -21 22 -31 53 -16 47 17 -5 38 46 38 89 0 36 -18 84
-32 84 -4 0 -8 8 -8 18 -1 19 -32 45 -68 56 -31 10 -23 29 16 40 18 5 32 12
32 16 0 4 19 4 43 -1 23 -4 48 -8 55 -9z m712 10 c0 -5 -7 -10 -15 -10 -8 0
-15 5 -15 10 0 6 7 10 15 10 8 0 15 -4 15 -10z m-1180 -47 c0 -14 4 -21 10
-18 6 3 10 1 10 -4 0 -6 -4 -11 -10 -11 -5 0 -10 -8 -10 -19 0 -10 -7 -25 -17
-32 -15 -13 -15 -12 -5 8 16 29 15 95 0 113 -11 12 -10 12 5 1 9 -7 17 -24 17
-38z m1600 22 c0 -8 -4 -15 -10 -15 -5 0 -10 7 -10 15 0 8 5 15 10 15 6 0 10
-7 10 -15z m537 -9 c-26 -7 -60 -24 -75 -37 l-27 -24 20 24 c24 28 70 50 105
50 15 0 7 -5 -23 -13z m118 4 c7 -12 -2 -12 -30 0 -19 8 -19 9 2 9 12 1 25 -3
28 -9z m-1295 -4 c0 -2 -8 -10 -17 -17 -16 -13 -17 -12 -4 4 13 16 21 21 21
13z m420 -6 c0 -5 -4 -10 -10 -10 -5 0 -10 5 -10 10 0 6 5 10 10 10 6 0 10 -4
10 -10z m135 -21 c54 -48 80 -88 66 -102 -9 -9 -10 -8 -5 7 5 13 4 17 -3 13
-6 -4 -17 1 -24 10 -20 24 -100 73 -120 73 -10 0 -19 -6 -22 -12 -7 -22 4 -38
27 -38 22 0 126 -45 126 -54 0 -3 -8 -2 -17 1 -16 6 -16 5 -5 -10 12 -14 11
-15 -12 -4 -20 10 -22 13 -9 18 12 4 4 10 -25 22 -53 21 -73 22 -66 2 4 -9 19
-15 35 -15 16 0 29 -4 29 -8 0 -4 -15 -6 -33 -4 -26 3 -35 10 -48 41 -18 43
-10 71 21 71 10 0 22 5 25 10 10 16 22 12 60 -21z m791 20 c10 -17 -13 -36
-27 -22 -12 12 -4 33 11 33 5 0 12 -5 16 -11z m-2591 -9 c3 -5 1 -10 -4 -10
-6 0 -11 5 -11 10 0 6 2 10 4 10 3 0 8 -4 11 -10z m2550 -23 c7 -7 4 -8 -8 -3
-10 3 -32 6 -48 6 -16 0 -29 5 -29 10 0 13 70 2 85 -13z m-1031 -26 c54 -54
31 -144 -44 -173 -16 -6 -38 -5 -66 2 -35 10 -45 19 -60 54 -10 22 -23 45 -29
49 -7 6 -6 10 3 14 7 2 19 18 28 35 32 62 115 71 168 19z m536 29 c0 -5 -4
-10 -10 -10 -5 0 -10 5 -10 10 0 6 5 10 10 10 6 0 10 -4 10 -10z m120 0 c0 -5
-4 -10 -10 -10 -5 0 -10 5 -10 10 0 6 5 10 10 10 6 0 10 -4 10 -10z m280 3 c0
-5 -12 -9 -26 -10 -15 0 -34 -9 -43 -19 -15 -17 -15 -17 1 -5 9 7 19 8 22 3 5
-9 -29 -26 -46 -23 -10 1 -30 -37 -39 -74 l-7 -30 -1 28 c-1 15 10 44 23 65
12 20 24 42 25 47 1 6 8 9 16 7 7 -1 16 2 20 8 7 11 55 14 55 3z m-1730 -33
c-15 -9 -30 -4 -30 10 0 5 7 6 17 3 12 -5 14 -3 8 8 -7 12 -5 12 6 1 12 -11
12 -14 -1 -22z m-495 10 c3 -6 -1 -7 -9 -4 -18 7 -21 14 -7 14 6 0 13 -4 16
-10z m567 1 c-11 -6 -10 -11 3 -25 14 -13 14 -16 2 -16 -16 0 -30 27 -21 41 3
5 11 9 17 9 8 0 8 -3 -1 -9z m-732 -21 c6 -11 8 -20 6 -20 -3 0 -10 9 -16 20
-6 11 -8 20 -6 20 3 0 10 -9 16 -20z m1530 10 c0 -5 -2 -10 -4 -10 -3 0 -8 5
-11 10 -3 6 -1 10 4 10 6 0 11 -4 11 -10z m540 6 c0 -3 -4 -8 -10 -11 -5 -3
-10 -1 -10 4 0 6 5 11 10 11 6 0 10 -2 10 -4z m351 -13 c13 -16 12 -17 -2 -5
-14 10 -18 10 -23 -4 -10 -25 -7 -32 12 -37 12 -3 11 -5 -6 -6 -21 -1 -23 3
-18 32 5 39 4 37 15 37 5 0 15 -8 22 -17z m-1879 -16 c37 -34 37 -99 1 -127
-14 -11 -33 -20 -42 -20 -9 1 -1 7 17 15 32 14 46 33 16 21 -14 -6 -15 -4 -4
9 11 13 15 13 22 3 5 -8 7 4 5 31 -3 33 -11 51 -31 68 -15 13 -23 23 -18 23 5
0 20 -11 34 -23z m-52 2 c0 -6 -6 -9 -14 -6 -20 8 -50 -28 -43 -53 3 -11 1
-18 -4 -14 -14 8 -11 -9 7 -34 11 -16 22 -21 37 -17 12 2 16 2 9 -1 -6 -3 -10
-10 -6 -15 3 -5 -6 -4 -19 2 -14 6 -30 23 -36 36 -21 45 13 112 57 113 6 0 12
-5 12 -11z m-146 -20 c-3 -5 -10 -7 -15 -3 -5 3 -7 10 -3 15 3 5 10 7 15 3 5
-3 7 -10 3 -15z m366 -15 c0 -15 -19 -29 -28 -19 -3 3 0 10 7 14 8 5 10 14 6
21 -6 9 -9 9 -16 -1 -5 -8 -9 -9 -9 -3 0 18 13 24 27 13 7 -6 13 -17 13 -25z
m1160 -18 c-1 -6 -7 0 -14 13 l-13 24 -11 -32 c-6 -17 -13 -31 -16 -31 -6 0 9
44 21 63 7 11 33 -20 33 -37z m260 34 c0 -5 -4 -10 -10 -10 -5 0 -10 5 -10 10
0 6 5 10 10 10 6 0 10 -4 10 -10z m70 -20 c0 -5 -2 -10 -4 -10 -3 0 -8 5 -11
10 -3 6 -1 10 4 10 6 0 11 -4 11 -10z m-2262 -12 c-6 -18 -28 -21 -28 -4 0 9
7 16 16 16 9 0 14 -5 12 -12z m-110 -20 c-6 -18 -28 -21 -28 -4 0 9 7 16 16
16 9 0 14 -5 12 -12z m1194 -12 c-2 -10 -8 -30 -14 -45 -6 -14 -12 -33 -12
-43 -1 -9 -4 -20 -8 -24 -4 -3 -6 3 -3 15 2 13 -1 21 -10 21 -7 0 -15 5 -17
12 -5 14 -38 3 -38 -13 0 -8 5 -7 18 2 14 11 15 11 5 0 -6 -7 -10 -30 -7 -50
2 -24 1 -29 -4 -14 -5 17 -11 20 -22 13 -19 -12 -51 -12 -68 -1 -12 7 -11 14
2 40 9 17 14 36 11 40 -3 5 -1 21 4 34 7 18 7 27 -2 30 -7 2 29 4 78 3 82 -1
90 -3 87 -20z m1485 -30 c-4 -9 -17 -16 -30 -16 -20 0 -23 4 -19 29 2 17 11
31 21 33 19 5 36 -24 28 -46z m-571 33 c3 -6 -6 -23 -22 -38 l-28 -26 22 26
c29 33 28 37 -10 42 l-33 4 32 1 c17 1 35 -3 39 -9z m398 -19 c-5 -24 -3 -30
11 -30 13 0 16 6 13 25 -6 29 7 34 15 6 6 -23 -10 -51 -29 -51 -20 0 -34 40
-22 63 13 26 18 21 12 -13z m-1620 5 c-4 -8 -1 -15 4 -15 6 0 13 8 15 18 4 13
5 12 6 -5 1 -26 -16 -40 -31 -25 -10 10 -5 42 6 42 3 0 3 -7 0 -15z m1068 6
l-24 -6 26 -24 c16 -16 24 -31 21 -42 -7 -22 12 -34 30 -19 10 8 19 8 34 1 26
-14 29 -14 34 7 3 10 5 6 6 -11 1 -27 1 -27 -29 -12 -28 14 -33 14 -52 0 -33
-23 -41 -19 -35 19 4 27 1 38 -18 56 -28 26 -24 40 8 39 22 -1 21 -1 -1 -8z
m638 -1 c0 -5 -5 -10 -11 -10 -5 0 -7 5 -4 10 3 6 8 10 11 10 2 0 4 -4 4 -10z
m-2472 -27 c2 -14 -4 -23 -17 -28 -12 -3 -21 -13 -21 -21 0 -18 -11 -18 -36 0
-10 8 -16 18 -11 22 4 4 7 2 7 -4 0 -7 5 -12 10 -12 5 0 9 3 8 8 -4 13 34 63
46 59 6 -2 12 -13 14 -24z m354 10 c10 -9 18 -25 18 -35 0 -12 4 -16 12 -12 7
4 8 3 4 -4 -12 -20 -25 -13 -28 15 -2 17 -12 32 -28 40 -14 7 -19 13 -11 13 8
0 23 -7 33 -17z m188 7 c0 -5 -2 -10 -4 -10 -3 0 -8 5 -11 10 -3 6 -1 10 4 10
6 0 11 -4 11 -10z m653 -12 c-4 -7 -8 -16 -8 -20 0 -3 -3 -9 -6 -12 -4 -4 -5
4 -4 16 3 28 3 28 16 28 6 0 7 -5 2 -12z m39 0 c-15 -15 -16 -31 0 -22 7 4 8
3 4 -4 -4 -7 -16 -17 -27 -23 -19 -10 -20 -9 -8 13 15 29 30 48 37 48 3 0 1
-5 -6 -12z m-1337 -8 c3 -5 1 -10 -4 -10 -6 0 -11 5 -11 10 0 6 2 10 4 10 3 0
8 -4 11 -10z m142 -62 l-22 -6 22 -1 c12 -1 25 -6 28 -11 4 -7 14 -6 28 2 19
10 20 9 10 -4 -11 -13 -6 -18 30 -34 40 -18 68 -37 68 -48 0 -3 6 -21 14 -40
34 -81 5 -186 -64 -231 -107 -71 -226 -43 -281 66 -43 83 -18 175 67 248 45
38 46 41 23 42 l-25 1 25 7 c15 4 28 3 32 -3 7 -10 12 6 9 27 0 4 6 7 15 7 11
0 14 6 9 23 -5 18 -2 16 14 -8 l21 -30 -23 -7z m387 -9 c-9 -10 -27 -18 -38
-18 -20 1 -20 2 -1 6 32 8 45 23 46 57 l2 31 4 -28 c3 -18 -2 -36 -13 -48z
m-77 45 c9 -23 -11 -38 -27 -19 -16 20 -49 19 -72 -2 -18 -16 -18 -16 -12 0 9
23 50 32 81 18 23 -11 25 -10 13 3 -9 11 -9 16 -1 16 6 0 14 -7 18 -16z m921
-3 c-6 -11 -22 -21 -35 -24 -19 -3 -21 -2 -12 9 6 8 15 12 19 9 4 -3 13 2 20
10 18 21 22 19 8 -4z m429 -3 c13 -12 23 -26 23 -31 0 -11 57 -87 79 -104 8
-7 12 -16 8 -19 -10 -10 -72 58 -70 75 2 10 0 11 -3 3 -3 -6 -10 -9 -16 -6
-19 12 -2 -29 25 -58 15 -17 27 -34 27 -39 0 -5 6 -9 13 -9 8 0 22 -10 33 -22
19 -23 19 -23 -1 -7 -11 9 -24 15 -30 13 -5 -2 -28 19 -50 46 -39 48 -64 59
-73 31 -3 -8 0 -11 6 -7 6 4 18 -9 28 -29 9 -19 20 -35 25 -35 5 0 9 -4 9 -9
0 -13 -39 -21 -47 -9 -3 7 -1 8 5 4 40 -25 -33 92 -75 119 -29 19 -29 49 0 85
27 35 53 37 84 8z m413 13 c0 -5 -6 -14 -14 -20 -12 -10 -13 -8 -9 8 5 21 23
30 23 12z m157 -13 c-3 -8 -6 -5 -6 6 -1 11 2 17 5 13 3 -3 4 -12 1 -19z
m-1867 -23 c-7 -8 -20 -15 -29 -14 -11 0 -9 3 7 9 12 5 22 17 23 27 0 11 3 13
6 5 3 -7 -1 -19 -7 -27z m2084 -12 c-22 -16 -38 -12 -42 9 -4 19 27 29 46 14
11 -8 10 -12 -4 -23z m70 22 c-4 -8 -11 -15 -16 -15 -6 0 -5 6 2 15 7 8 14 15
16 15 2 0 1 -7 -2 -15z m37 2 c-6 -8 -8 -17 -4 -20 3 -4 -2 -9 -11 -13 -27
-10 -29 2 -5 25 26 24 37 28 20 8z m-427 -3 c-13 -6 4 -83 25 -108 12 -14 10
-16 -23 -16 -25 0 -36 -4 -36 -15 0 -12 -3 -13 -19 -3 -15 9 -23 9 -35 -1 -14
-12 -16 -10 -16 7 0 12 -7 25 -17 30 -12 7 -14 18 -10 39 3 17 1 35 -6 42 -8
8 -7 11 5 11 18 0 32 -27 18 -35 -16 -10 -12 -30 11 -54 17 -18 28 -22 53 -17
17 4 36 7 42 8 10 1 5 43 -12 101 -4 12 0 17 13 16 10 0 13 -3 7 -5z m-1837
-24 c3 -11 10 -20 15 -20 5 0 7 -9 3 -19 -4 -13 1 -24 17 -35 18 -13 19 -16 6
-16 -10 0 -24 12 -32 28 -13 23 -15 24 -16 6 0 -28 20 -52 50 -57 22 -3 23 -4
6 -12 -39 -17 -83 46 -58 85 12 19 10 22 -20 24 -7 1 -16 -12 -19 -29 -7 -30
-7 -30 -8 -3 -1 17 7 33 22 43 22 17 22 17 -10 13 -18 -3 -30 -1 -27 4 3 4 19
8 36 8 21 0 31 -6 35 -20z m773 -6 c0 -2 -9 0 -20 6 -11 6 -20 13 -20 16 0 2
9 0 20 -6 11 -6 20 -13 20 -16z m1290 16 c0 -5 -2 -10 -4 -10 -3 0 -8 5 -11
10 -3 6 -1 10 4 10 6 0 11 -4 11 -10z m-1760 -20 c-6 -11 -18 -20 -27 -20 -14
0 -14 2 2 20 10 11 22 20 27 20 5 0 4 -9 -2 -20z m388 -5 c-3 -3 -9 2 -12 12
-6 14 -5 15 5 6 7 -7 10 -15 7 -18z m492 5 c0 -5 -4 -10 -10 -10 -5 0 -10 5
-10 10 0 6 5 10 10 10 6 0 10 -4 10 -10z m571 -13 c-6 -8 -9 -22 -5 -31 5 -12
2 -15 -10 -10 -14 5 -14 9 0 36 9 16 18 27 21 24 3 -3 1 -12 -6 -19z m59 -16
c-1 -25 -24 -51 -39 -42 -9 6 -7 10 8 14 23 6 28 35 9 57 -11 12 -10 12 5 1 9
-7 17 -21 17 -30z m167 1 c4 -8 -1 -21 -11 -27 -10 -8 -13 -16 -7 -19 5 -3 11
-1 13 5 2 7 8 6 16 -3 9 -12 8 -14 -8 -13 -28 2 -58 33 -56 59 1 18 6 21 24
18 13 -3 26 -11 29 -20z m-1911 -10 c-10 -2 -22 0 -28 6 -6 6 0 7 19 4 21 -5
23 -7 9 -10z m605 -23 c-5 -13 -10 -19 -10 -12 -1 15 10 45 15 40 3 -2 0 -15
-5 -28z m1409 -25 c0 -9 -28 -3 -46 11 -17 13 -16 14 14 4 17 -6 32 -13 32
-15z m-1993 10 c-3 -3 -12 -4 -19 -1 -8 3 -5 6 6 6 11 1 17 -2 13 -5z m353 -4
c0 -5 -4 -10 -10 -10 -5 0 -10 5 -10 10 0 6 5 10 10 10 6 0 10 -4 10 -10z
m1810 -51 c0 -6 -4 -7 -10 -4 -5 3 -10 11 -10 16 0 6 5 7 10 4 6 -3 10 -11 10
-16z m-1745 1 c3 -6 -1 -7 -9 -4 -18 7 -21 14 -7 14 6 0 13 -4 16 -10z m541
-15 c20 -8 49 -26 66 -40 23 -19 34 -23 48 -15 25 14 147 18 147 5 0 -5 -35
-12 -76 -13 -42 -2 -77 -5 -79 -6 -9 -9 12 -33 26 -30 9 2 23 0 31 -5 11 -7
11 -13 0 -37 -10 -21 -37 -41 -99 -71 -47 -23 -86 -47 -88 -53 -4 -10 108 39
131 58 6 6 24 13 40 17 15 4 27 11 27 15 0 5 11 7 25 5 14 -1 23 0 20 3 -3 3
4 11 15 19 11 8 20 19 20 25 0 6 -6 6 -15 -2 -9 -7 -18 -10 -22 -6 -3 3 -1 6
6 6 6 0 16 12 21 26 10 24 30 25 30 1 0 -7 -4 -6 -10 3 -8 13 -10 13 -10 -1 0
-21 26 -32 28 -13 1 8 3 21 4 29 2 18 18 9 18 -11 0 -23 -89 -112 -125 -126
-27 -9 -36 -19 -44 -52 -24 -94 -90 -153 -182 -163 -67 -6 -128 9 -169 44 -27
22 -35 24 -56 14 -44 -20 -174 -7 -182 19 -2 5 -7 8 -11 6 -4 -3 -8 1 -8 9 0
18 115 130 124 121 10 -10 53 35 53 56 0 28 34 89 67 120 58 56 155 74 229 43z
m-499 -1 c-3 -3 -12 -4 -19 -1 -8 3 -5 6 6 6 11 1 17 -2 13 -5z m-52 -34 c7 0
18 -7 25 -15 16 -19 12 -19 -31 3 -25 13 -32 21 -25 29 8 7 12 7 14 -3 2 -8 9
-14 17 -14z m15 19 c0 -5 5 -7 10 -4 6 3 10 1 10 -4 0 -13 -3 -13 -24 -5 -18
7 -22 24 -6 24 6 0 10 -5 10 -11z m1525 -9 c-21 -23 -33 -122 -14 -118 6 2 14
-3 17 -11 3 -8 0 -11 -7 -7 -19 12 -12 0 11 -20 21 -17 21 -17 8 -1 -13 17
-12 18 16 15 17 -2 28 -8 27 -15 -5 -21 34 -15 63 11 33 27 38 84 12 113 -9
10 -17 23 -18 28 -1 6 -4 12 -7 15 -4 3 -3 -1 1 -8 6 -10 0 -12 -29 -6 -29 5
-40 2 -60 -16 -13 -12 -25 -17 -29 -12 -12 20 47 50 92 48 61 -3 74 -20 76
-103 1 -22 4 -39 9 -36 4 2 7 0 7 -5 0 -6 -11 -13 -25 -16 -14 -4 -23 -11 -20
-17 5 -6 13 -5 23 3 15 12 15 11 4 -4 -8 -10 -22 -15 -38 -12 -14 3 -23 1 -21
-3 9 -15 -88 -1 -105 14 -10 9 -20 32 -23 52 -4 20 -8 46 -11 59 -3 15 4 31
20 47 30 30 47 34 21 5z m-1755 1 c0 -6 -4 -13 -10 -16 -5 -3 -10 1 -10 9 0 9
5 16 10 16 6 0 10 -4 10 -9z m1580 -11 c0 -17 7 -20 43 -20 l42 -1 -41 -22
c-35 -19 -41 -26 -37 -50 l4 -28 -26 23 c-26 23 -36 39 -10 18 12 -10 15 -10
15 3 0 9 12 23 28 31 l27 15 -27 1 c-19 0 -28 5 -28 17 0 15 -1 15 -18 0 -10
-10 -27 -17 -38 -17 -14 0 -15 -3 -6 -8 8 -5 10 -16 6 -27 -6 -14 -4 -16 6
-10 9 5 11 4 6 -4 -4 -6 -12 -9 -17 -6 -5 4 -9 1 -9 -4 0 -6 -5 -11 -11 -11
-7 0 -5 9 5 24 10 15 12 27 6 31 -18 11 -10 25 15 25 14 0 29 8 35 20 6 11 15
20 20 20 6 0 10 -9 10 -20z m440 0 c0 -5 -5 -10 -11 -10 -5 0 -7 5 -4 10 3 6
8 10 11 10 2 0 4 -4 4 -10z m-2110 -10 c0 -5 -4 -10 -10 -10 -5 0 -10 5 -10
10 0 6 5 10 10 10 6 0 10 -4 10 -10z m1900 -15 c0 -8 -7 -15 -15 -15 -16 0
-20 12 -8 23 11 12 23 8 23 -8z m65 -5 c10 -11 14 -20 10 -20 -5 0 -4 -5 3
-12 17 -17 15 -28 -4 -28 -10 0 -14 6 -11 15 9 21 -14 31 -25 11 -9 -16 -58
-23 -58 -8 0 4 9 14 20 22 11 8 20 20 20 27 0 20 25 16 45 -7z m-1915 -5 c0
-8 -4 -15 -10 -15 -5 0 -10 7 -10 15 0 8 5 15 10 15 6 0 10 -7 10 -15z m60 5
c0 -5 -4 -10 -10 -10 -5 0 -10 5 -10 10 0 6 5 10 10 10 6 0 10 -4 10 -10z
m1955 -20 c-5 -8 -11 -8 -17 -2 -6 6 -7 16 -3 22 5 8 11 8 17 2 6 -6 7 -16 3
-22z m-2170 10 c3 -5 1 -10 -4 -10 -6 0 -11 5 -11 10 0 6 2 10 4 10 3 0 8 -4
11 -10z m65 -15 c0 -8 -4 -15 -9 -15 -13 0 -22 16 -14 24 11 11 23 6 23 -9z
m1907 -1 c8 -21 -13 -42 -28 -27 -13 13 -5 43 11 43 6 0 13 -7 17 -16z m-1857
-15 c0 -5 -7 -9 -15 -9 -15 0 -20 12 -9 23 8 8 24 -1 24 -14z m1354 -10 c-3
-5 -10 -7 -15 -3 -5 3 -7 10 -3 15 3 5 10 7 15 3 5 -3 7 -10 3 -15z m107 -22
c10 -3 22 -1 25 4 7 12 24 11 24 -1 0 -5 -7 -10 -16 -10 -9 0 -14 -6 -11 -12
18 -51 18 -58 -2 -58 -35 0 -73 20 -78 40 -4 13 -15 20 -32 21 -18 1 -13 4 14
8 33 5 41 11 44 31 4 23 5 23 8 4 2 -12 13 -24 24 -27z m-1551 17 c0 -17 -22
-14 -28 4 -2 7 3 12 12 12 9 0 16 -7 16 -16z m342 -21 c22 -20 23 -41 1 -65
-31 -35 -73 -16 -73 34 0 42 40 60 72 31z m1628 1 c0 -9 -5 -14 -12 -12 -18 6
-21 28 -4 28 9 0 16 -7 16 -16z m45 6 c-3 -5 -13 -10 -21 -10 -8 0 -12 5 -9
10 3 6 13 10 21 10 8 0 12 -4 9 -10z m-1878 -16 c85 -41 118 -152 72 -244 -19
-37 -33 -52 -70 -69 -85 -38 -161 -23 -217 44 -36 45 -48 97 -32 154 12 45 61
108 94 121 35 14 116 11 153 -6z m1900 -9 c-4 -8 -14 -15 -23 -15 -16 0 -16 2
1 20 20 22 31 20 22 -5z m-775 0 c0 -5 -5 -11 -11 -13 -6 -2 -11 4 -11 13 0 9
5 15 11 13 6 -2 11 -8 11 -13z m312 -65 c31 0 56 3 56 6 0 3 -10 15 -22 26
l-23 20 25 -15 c37 -22 32 -50 -11 -61 -51 -13 -104 0 -144 36 -50 43 -43 53
14 18 38 -24 59 -30 105 -30z m-1174 -20 c0 -5 -7 -10 -15 -10 -8 0 -15 5 -15
10 0 6 7 10 15 10 8 0 15 -4 15 -10z m1055 0 c3 -5 -1 -10 -10 -10 -9 0 -13 5
-10 10 3 6 8 10 10 10 2 0 7 -4 10 -10z m310 -10 c13 -5 14 -9 5 -9 -8 0 -24
4 -35 9 -13 5 -14 9 -5 9 8 0 24 -4 35 -9z m-395 -20 c0 -5 -7 -10 -16 -10 -8
0 -12 5 -9 10 3 6 10 10 16 10 5 0 9 -4 9 -10z m365 -10 l20 -9 -20 0 c-11 0
-29 4 -40 9 l-20 9 20 0 c11 0 29 -4 40 -9z m-2015 -30 c0 -5 -4 -10 -10 -10
-5 0 -10 5 -10 10 0 6 5 10 10 10 6 0 10 -4 10 -10z m1615 -35 c6 1 22 7 38
15 36 18 42 9 21 -31 -16 -33 -16 -33 11 -56 30 -27 28 -33 -18 -48 -22 -7
-38 -22 -50 -47 -10 -21 -22 -38 -27 -38 -4 0 -12 16 -17 36 -10 43 -21 51
-88 60 l-50 6 25 17 c52 33 80 69 80 101 l0 31 33 -24 c17 -13 37 -23 42 -22z
m-919 2 c1 -9 -2 -17 -7 -17 -5 0 -9 5 -9 11 0 7 -7 8 -17 4 -10 -4 -22 -7
-28 -7 -35 2 -55 7 -55 14 0 5 17 5 39 2 25 -4 41 -2 46 5 9 16 28 9 31 -12z
m1249 1 c22 0 40 -7 52 -21 17 -19 17 -20 1 -14 -10 4 -18 2 -18 -3 0 -13 27
-13 35 0 3 6 13 10 22 10 12 0 13 -3 4 -14 -6 -7 -38 -16 -70 -20 -32 -4 -61
-9 -64 -12 -10 -10 4 -34 20 -34 8 0 29 -14 46 -31 l31 -31 24 28 c16 20 20
22 13 7 -6 -12 -8 -23 -3 -26 4 -2 2 -2 -5 -1 -14 4 -24 -9 -39 -53 -9 -26 -9
-35 2 -44 33 -27 15 -37 -61 -34 -63 2 -80 6 -100 25 -14 13 -25 31 -25 39 1
11 5 8 14 -8 14 -25 51 -50 75 -51 21 0 78 46 84 70 3 11 1 20 -4 20 -5 0 -9
-7 -9 -15 0 -8 -4 -15 -8 -15 -14 0 -10 29 5 34 7 3 13 13 13 23 0 13 -2 15
-9 5 -6 -10 -11 -9 -22 4 -12 16 -12 17 1 10 9 -4 8 -2 -2 7 -10 8 -15 17 -11
20 3 4 -4 7 -16 7 -14 0 -20 -4 -15 -12 5 -7 2 -9 -9 -5 -8 3 -27 3 -41 -1
-19 -5 -23 -11 -16 -21 7 -12 12 -12 23 -3 11 10 17 9 26 -2 8 -9 8 -16 2 -20
-5 -4 -12 -2 -16 4 -4 6 -11 7 -17 4 -6 -4 -17 1 -24 11 -13 17 -14 16 -21
-15 -6 -31 -7 -32 -15 -11 -4 12 -12 20 -17 16 -5 -3 -12 -1 -15 4 -4 5 -2 12
3 15 5 4 12 2 16 -4 8 -14 25 -13 25 1 0 17 32 38 58 39 21 0 22 4 22 66 0 43
4 63 11 59 6 -4 25 -7 44 -7z m-1925 -28 c0 -5 -4 -10 -10 -10 -5 0 -10 5 -10
10 0 6 5 10 10 10 6 0 10 -4 10 -10z m2296 -27 c-11 -11 -17 4 -9 23 7 18 8
18 11 1 2 -10 1 -21 -2 -24z m-1591 -3 c4 -6 -7 -15 -24 -21 -17 -6 -28 -15
-25 -20 3 -5 0 -9 -5 -9 -6 0 -11 -7 -11 -15 0 -20 -16 -19 -24 1 -3 8 -2 12
4 9 5 -3 14 3 19 14 6 11 21 23 33 27 20 6 20 8 5 19 -9 7 -17 15 -17 19 0 9
37 -11 45 -24z m1522 14 c-3 -3 -12 -4 -19 -1 -8 3 -5 6 6 6 11 1 17 -2 13 -5z
m38 -4 c-3 -5 -12 -10 -18 -10 -7 0 -6 4 3 10 19 12 23 12 15 0z m-2430 -19
c-3 -6 -11 -11 -16 -11 -5 0 -4 6 3 14 14 16 24 13 13 -3z m135 -21 c0 -5 -4
-10 -10 -10 -5 0 -10 5 -10 10 0 6 5 10 10 10 6 0 10 -4 10 -10z m2266 -3 c4
-4 -2 -7 -14 -7 -12 0 -22 4 -22 9 0 10 26 9 36 -2z m-491 -25 c-3 -3 -11 0
-18 7 -9 10 -8 11 6 5 10 -3 15 -9 12 -12z m-1642 -25 c13 -19 13 -26 1 -42
-13 -18 -14 -18 -33 -1 -19 17 -19 20 -4 42 19 29 17 29 36 1z m1897 19 c0 -2
-7 -7 -16 -10 -8 -3 -12 -2 -9 4 6 10 25 14 25 6z m193 -7 c-6 -6 -9 -19 -6
-28 4 -13 3 -14 -5 -1 -10 14 1 40 16 40 3 0 1 -5 -5 -11z m-1703 -19 c0 -5
-4 -10 -10 -10 -5 0 -10 5 -10 10 0 6 5 10 10 10 6 0 10 -4 10 -10z m390 -19
c-7 -14 -6 -21 3 -24 7 -3 5 -6 -5 -6 -10 -1 -18 -5 -18 -9 0 -5 -7 -17 -16
-28 -15 -18 -15 -18 -5 2 7 15 7 25 -2 34 -10 10 -9 12 5 7 9 -3 19 0 22 9 3
8 0 14 -7 14 -8 0 -6 4 3 10 24 15 32 12 20 -9z m505 -11 c3 -5 1 -10 -4 -10
-6 0 -11 5 -11 10 0 6 2 10 4 10 3 0 8 -4 11 -10z m-930 -20 c3 -5 1 -10 -4
-10 -6 0 -11 5 -11 10 0 6 2 10 4 10 3 0 8 -4 11 -10z m69 -10 c23 -11 52 -36
65 -55 31 -47 40 -125 17 -160 -13 -20 -14 -25 -2 -25 7 0 21 10 29 22 l16 23
-6 -23 c-6 -27 -25 -37 -49 -28 -14 5 -14 9 -3 23 11 13 11 17 2 20 -7 3 -13
12 -13 20 0 11 3 13 13 5 12 -10 12 -3 8 86 -1 20 -50 64 -63 56 -6 -4 -8 -3
-4 4 4 6 -8 18 -29 28 -33 15 -43 24 -28 24 4 0 25 -9 47 -20z m1327 -13 c22
-16 30 -17 47 -6 11 7 18 19 15 28 -4 13 -3 13 5 2 15 -21 -2 -67 -24 -63 -10
2 -24 4 -31 4 -7 1 -11 6 -10 12 1 6 -6 10 -16 9 -10 0 -16 2 -13 5 3 3 -2 14
-11 25 -20 23 -7 17 38 -16z m-1904 17 c-3 -3 -12 -4 -19 -1 -8 3 -5 6 6 6 11
1 17 -2 13 -5z m338 -10 l50 -13 -58 4 c-32 3 -63 6 -69 8 -7 1 -14 -6 -16
-17 -3 -13 0 -16 9 -11 8 5 10 4 5 -3 -4 -7 -3 -12 3 -12 5 0 12 8 15 18 4 13
4 13 3 -3 -2 -22 51 -98 62 -90 9 5 63 -30 56 -37 -3 -2 1 -5 9 -5 8 0 12 7 9
16 -3 11 0 10 11 -3 32 -40 18 -49 -30 -21 -26 15 -44 22 -40 16 4 -6 2 -11
-3 -11 -6 0 -11 5 -11 11 0 14 -46 69 -53 63 -6 -7 -57 55 -57 70 0 17 21 36
40 35 8 0 38 -7 65 -15z m115 -1 c-14 -9 -37 -27 -52 -41 -22 -20 -25 -29 -17
-44 10 -19 12 -19 30 -2 19 17 19 16 3 -14 -8 -18 -18 -32 -21 -32 -4 0 -3 3
0 7 8 7 -11 33 -25 33 -5 0 -6 -5 -2 -11 4 -8 0 -8 -15 0 -11 7 -21 14 -21 17
0 3 4 3 9 -1 5 -3 12 3 16 14 8 27 38 58 71 76 39 20 55 19 24 -2z m312 -1 c3
-12 -2 -24 -13 -31 -15 -9 -19 -8 -19 4 0 8 -5 15 -12 15 -6 0 -3 7 8 15 25
19 31 19 36 -3z m298 -22 c0 -5 -4 -10 -9 -10 -6 0 -13 5 -16 10 -3 6 1 10 9
10 9 0 16 -4 16 -10z m90 -11 c0 -25 -33 -22 -38 4 -2 12 3 17 17 17 15 0 21
-6 21 -21z m260 -3 c0 -7 -12 -22 -27 -32 -22 -13 -25 -14 -15 -2 7 9 12 20
11 24 -3 18 1 24 16 24 8 0 15 -6 15 -14z m134 -12 c6 -15 4 -15 -10 -3 -16
13 -16 12 -6 -7 9 -18 8 -20 -8 -19 -30 2 -37 15 -16 31 25 18 32 18 40 -2z
m-1219 -23 c-6 -5 -25 10 -25 20 0 5 6 4 14 -3 8 -7 12 -15 11 -17z m1159 4
c3 -8 1 -15 -4 -15 -6 0 -10 7 -10 15 0 8 2 15 4 15 2 0 6 -7 10 -15z m676 5
c0 -5 -4 -10 -10 -10 -5 0 -10 5 -10 10 0 6 5 10 10 10 6 0 10 -4 10 -10z
m-1291 -19 c6 -10 7 -21 4 -25 -3 -3 1 -6 11 -6 11 0 15 4 10 13 -5 6 8 -1 27
-18 28 -23 32 -32 21 -38 -7 -5 -25 -5 -40 -1 -47 12 -63 12 -51 -2 7 -9 6
-14 -3 -20 -7 -4 -10 -4 -6 1 5 5 -6 16 -22 26 -17 11 -30 27 -29 36 0 14 3
12 10 -6 6 -15 14 -21 25 -17 9 3 19 6 23 6 4 0 8 7 8 15 0 8 -4 15 -8 15 -5
0 -6 7 -3 15 8 19 -26 21 -46 3 -12 -11 -12 -10 -1 5 18 23 58 22 70 -2z m131
-2 c0 -5 -7 -9 -15 -9 -15 0 -20 12 -9 23 8 8 24 -1 24 -14z m1277 -45 c-3
-36 -10 -71 -17 -77 -10 -10 -10 -8 -1 10 8 16 8 22 -1 25 -8 3 -8 9 1 25 22
43 10 47 -22 9 -19 -22 -38 -36 -44 -33 -6 4 -16 0 -23 -8 -7 -8 -16 -13 -20
-10 -4 2 -15 -4 -24 -14 -10 -11 -13 -22 -8 -25 6 -3 13 1 16 10 4 10 14 14
26 11 12 -3 18 -1 14 5 -4 6 -1 8 7 6 8 -3 22 1 32 10 15 14 17 13 17 -6 0
-11 -4 -24 -10 -27 -5 -3 -10 -13 -10 -21 0 -8 5 -12 10 -9 6 3 10 0 11 -7 1
-7 5 -2 9 12 7 20 8 21 9 5 0 -11 -25 -47 -57 -81 -87 -94 -158 -116 -184 -58
-9 18 -8 31 2 52 20 39 61 82 73 75 6 -3 7 -1 3 6 -8 13 71 94 84 86 4 -3 13
2 20 10 7 8 16 13 20 10 9 -6 60 51 60 66 0 5 2 9 5 9 3 0 4 -30 2 -66z
m-2108 33 c6 -8 14 -28 17 -45 4 -18 10 -32 14 -32 5 0 6 -9 3 -20 -3 -11 -9
-17 -14 -14 -5 3 -14 -6 -21 -20 -9 -20 -19 -26 -44 -26 -18 0 -34 3 -36 8 -1
4 -16 14 -33 22 -28 15 -30 20 -26 60 5 71 14 80 75 80 33 0 58 -5 65 -13z
m1188 -21 c-4 -9 -14 -12 -27 -9 -21 6 -21 6 2 18 27 14 33 12 25 -9z m-92 4
c3 -5 -1 -10 -10 -10 -9 0 -13 5 -10 10 3 6 8 10 10 10 2 0 7 -4 10 -10z
m-961 -18 c3 -5 -1 -9 -9 -9 -8 0 -12 4 -9 9 3 4 7 8 9 8 2 0 6 -4 9 -8z m912
-7 c-16 -17 -42 -20 -50 -6 -9 13 5 21 36 21 26 0 28 -2 14 -15z m544 5 c0 -5
-4 -10 -10 -10 -5 0 -10 5 -10 10 0 6 5 10 10 10 6 0 10 -4 10 -10z m271 -14
c-10 -12 -7 -15 16 -18 20 -2 -2 -12 -79 -34 -99 -29 -106 -30 -105 -13 1 11
6 19 12 19 5 0 3 5 -5 11 -13 9 -13 10 0 6 8 -2 14 -12 14 -21 -1 -9 -1 -16 0
-16 13 0 113 34 120 41 19 17 -1 19 -42 2 -46 -18 -59 -14 -47 14 7 16 8 16
12 1 4 -15 8 -15 46 3 52 23 75 25 58 5z m-1706 -26 c-1 -17 1 -33 6 -35 4 -3
6 -14 4 -25 -2 -11 3 -24 12 -28 13 -8 13 -10 0 -15 -14 -5 -42 16 -49 38 -2
6 -7 9 -11 7 -5 -1 -5 3 0 10 4 7 8 20 8 29 0 13 22 49 30 49 1 0 1 -14 0 -30z
m1262 21 c20 -6 35 -5 42 2 6 6 14 7 18 2 5 -4 2 -10 -5 -12 -7 -3 -19 -19
-26 -37 -18 -43 -80 -102 -121 -116 -25 -8 -39 -23 -55 -56 -23 -46 -62 -84
-88 -84 -14 0 -14 15 4 78 5 19 2 22 -19 22 -13 0 -30 7 -37 15 -11 13 -16 13
-42 -1 -16 -9 -32 -13 -35 -10 -3 3 7 11 21 18 22 10 48 49 57 86 1 4 -16 16
-37 27 -20 11 -39 25 -41 31 -8 25 96 32 136 10 21 -12 30 -11 60 2 72 30 119
37 168 23z m-587 -11 c0 -5 -4 -10 -10 -10 -5 0 -10 5 -10 10 0 6 5 10 10 10
6 0 10 -4 10 -10z m-178 -57 c7 -9 7 -13 0 -13 -13 0 -22 25 -21 53 2 19 2 19
6 -3 3 -14 10 -31 15 -37z m134 35 c-14 -19 -13 -24 10 -50 13 -17 22 -34 18
-39 -3 -5 5 -9 18 -9 19 0 20 2 8 11 -10 7 -11 9 -2 7 23 -6 14 -23 -14 -26
-21 -3 -25 0 -21 12 3 8 0 19 -7 23 -7 5 -15 16 -19 26 -9 25 -27 21 -27 -6 0
-15 9 -29 23 -36 17 -9 17 -10 2 -5 -42 13 -49 9 -62 -35 -12 -41 -26 -60 -45
-61 -5 0 -8 4 -8 10 0 5 5 9 11 7 6 -1 14 4 17 12 2 8 1 11 -4 8 -5 -3 -7 15
-5 39 2 29 -3 53 -13 69 -9 13 -16 30 -16 37 0 7 8 1 18 -14 20 -33 42 -36 67
-8 10 11 22 17 26 14 5 -3 6 2 3 10 -3 8 2 16 13 19 10 3 19 5 21 6 2 0 -4 -9
-12 -21z m-582 6 c-6 -3 -9 -16 -6 -29 2 -14 8 -23 12 -20 4 3 11 -2 14 -10 4
-12 2 -13 -13 -6 -33 18 -43 72 -13 70 9 0 12 -3 6 -5z m121 -4 c3 -5 0 -7 -8
-4 -8 3 -18 1 -22 -5 -3 -6 -1 -11 6 -11 7 0 10 -3 6 -6 -3 -3 -11 -3 -17 1
-8 5 -8 11 1 21 13 16 25 18 34 4z m135 -22 c0 -19 -16 -5 -17 14 -2 18 0 20
7 8 5 -8 10 -18 10 -22z m290 22 c0 -5 -5 -10 -11 -10 -5 0 -7 5 -4 10 3 6 8
10 11 10 2 0 4 -4 4 -10z m-132 -92 c-3 -7 -11 -13 -19 -16 -12 -3 -12 -2 1 7
12 8 12 11 -3 17 -10 4 -16 13 -13 20 3 8 1 14 -4 14 -6 0 -10 -6 -10 -12 0
-9 -3 -8 -9 2 -6 8 -7 18 -4 22 2 5 -1 17 -8 26 -6 9 7 -2 30 -26 23 -23 41
-48 39 -54z m350 80 c-2 -6 -10 -14 -16 -16 -7 -2 -10 2 -6 12 7 18 28 22 22
4z m1292 2 c0 -5 -4 -10 -10 -10 -5 0 -10 5 -10 10 0 6 5 10 10 10 6 0 10 -4
10 -10z m-610 -25 c-19 -7 -44 -13 -55 -13 -13 0 -7 5 15 13 19 7 44 13 55 13
13 0 7 -5 -15 -13z m560 -15 c0 -5 -2 -10 -4 -10 -3 0 -8 5 -11 10 -3 6 -1 10
4 10 6 0 11 -4 11 -10z m138 -6 c42 -29 17 -104 -35 -104 -22 0 -53 38 -53 64
0 24 32 56 55 56 6 0 21 -7 33 -16z m-1943 -4 c-3 -5 -11 -10 -16 -10 -6 0 -7
5 -4 10 3 6 11 10 16 10 6 0 7 -4 4 -10z m-100 -10 c3 -5 1 -10 -4 -10 -6 0
-11 5 -11 10 0 6 2 10 4 10 3 0 8 -4 11 -10z m-506 -32 l-1 -33 -8 30 c-7 28
-8 29 -10 5 -1 -14 -4 -19 -7 -12 -6 17 3 42 17 42 5 0 9 -15 9 -32z m691 22
c18 -12 2 -12 -25 0 -13 6 -15 9 -5 9 8 0 22 -4 30 -9z m-199 -22 c6 -10 100
2 94 12 -2 4 10 7 28 8 l32 1 -27 -15 c-46 -24 -111 -28 -146 -10 -18 9 -32
18 -32 20 0 7 45 -7 51 -16z m1499 2 c0 -5 -4 -10 -10 -10 -5 0 -10 5 -10 10
0 6 5 10 10 10 6 0 10 -4 10 -10z m-1571 -14 c8 -9 8 -16 2 -20 -5 -4 -12 -2
-16 4 -4 6 -11 8 -16 4 -5 -3 -7 -9 -4 -14 3 -4 -2 -7 -10 -6 -19 3 -20 21 -2
21 6 1 11 6 10 13 -4 17 22 15 36 -2z m1951 -6 c0 -5 -4 -10 -10 -10 -5 0 -10
5 -10 10 0 6 5 10 10 10 6 0 10 -4 10 -10z m-2267 -6 c10 -10 -11 -42 -36 -55
-19 -10 -18 -7 6 19 21 21 25 31 15 35 -7 3 -8 6 -2 6 6 1 14 -2 17 -5z m355
-6 c-2 -7 2 -12 8 -11 6 1 11 -4 11 -11 0 -10 -28 -14 -56 -7 -5 1 30 41 36
41 1 0 2 -6 1 -12z m248 -15 c-10 -10 -19 5 -10 18 6 11 8 11 12 0 2 -7 1 -15
-2 -18z m89 17 c3 -5 1 -10 -4 -10 -6 0 -11 5 -11 10 0 6 2 10 4 10 3 0 8 -4
11 -10z m-535 -10 c0 -5 -4 -10 -10 -10 -5 0 -10 5 -10 10 0 6 5 10 10 10 6 0
10 -4 10 -10z m-216 -21 c-3 -5 -10 -7 -15 -3 -5 3 -7 10 -3 15 3 5 10 7 15 3
5 -3 7 -10 3 -15z m473 0 c-8 -13 -13 -15 -18 -7 -10 15 -4 25 15 25 11 0 12
-4 3 -18z m-632 1 c3 -5 2 -10 -4 -10 -5 0 -13 5 -16 10 -3 6 -2 10 4 10 5 0
13 -4 16 -10z m685 6 c0 -2 -6 -9 -14 -15 -11 -9 -16 -9 -22 0 -4 7 -3 9 4 5
6 -3 13 -2 17 4 6 10 15 14 15 6z m620 -29 c-19 -18 -37 -31 -40 -29 -6 4 57
62 67 62 4 0 -8 -15 -27 -33z m-1017 -2 c-3 -9 -8 -14 -10 -11 -3 3 -2 9 2 15
9 16 15 13 8 -4z m607 -6 c0 -5 -4 -9 -10 -9 -5 0 -10 7 -10 16 0 8 5 12 10 9
6 -3 10 -10 10 -16z m550 17 c0 -3 -25 -14 -55 -25 -39 -15 -61 -18 -77 -12
-20 8 -19 9 12 9 19 0 51 6 70 15 37 16 50 20 50 13z m470 -6 c-8 -5 -19 -10
-25 -10 -5 0 -3 5 5 10 8 5 20 10 25 10 6 0 3 -5 -5 -10z m-1879 -17 c13 -16
12 -17 -3 -4 -10 7 -18 15 -18 17 0 8 8 3 21 -13z m109 -7 c0 -3 -4 -8 -10
-11 -5 -3 -10 -1 -10 4 0 6 5 11 10 11 6 0 10 -2 10 -4z m380 -24 c0 -13 -12
-22 -22 -16 -10 6 -1 24 13 24 5 0 9 -4 9 -8z m-600 -28 c0 -8 -4 -14 -10 -14
-5 0 -10 9 -10 21 0 11 5 17 10 14 6 -3 10 -13 10 -21z m940 16 c0 -5 -4 -10
-10 -10 -5 0 -10 5 -10 10 0 6 5 10 10 10 6 0 10 -4 10 -10z m800 -10 c0 -5
-7 -10 -15 -10 -8 0 -15 5 -15 10 0 6 7 10 15 10 8 0 15 -4 15 -10z m-630 -10
c0 -5 -4 -10 -10 -10 -5 0 -10 5 -10 10 0 6 5 10 10 10 6 0 10 -4 10 -10z"/>
<path d="M2264 1674 c3 -9 6 -18 6 -20 0 -9 47 -3 58 8 21 21 13 28 -29 28
-33 0 -40 -3 -35 -16z"/>
<path d="M242 1383 c15 -15 30 -25 33 -22 7 8 -33 49 -48 49 -6 0 1 -12 15
-27z"/>
<path d="M489 1383 c-13 -16 -12 -17 4 -4 16 13 21 21 13 21 -2 0 -10 -8 -17
-17z"/>
<path d="M680 1646 c0 -9 61 -38 67 -32 3 3 -7 10 -22 16 -15 6 -32 13 -36 16
-5 3 -9 3 -9 0z"/>
<path d="M777 1606 c21 -11 154 -8 167 5 3 3 -37 5 -88 5 -59 -1 -89 -4 -79
-10z"/>
<path d="M730 1596 c0 -2 7 -7 16 -10 8 -3 12 -2 9 4 -6 10 -25 14 -25 6z"/>
<path d="M1885 1441 c-3 -5 4 -13 16 -16 12 -4 39 -23 62 -44 28 -25 37 -29
29 -14 -12 22 -81 83 -94 83 -4 0 -9 -4 -13 -9z"/>
<path d="M1573 1401 c3 -12 -1 -18 -12 -17 -9 0 -19 4 -22 9 -3 4 -14 -2 -25
-14 -19 -21 -19 -22 2 -15 14 4 23 2 27 -7 4 -10 -3 -12 -25 -9 -26 4 -29 2
-26 -17 3 -20 10 -23 71 -25 38 -1 70 2 73 6 3 4 14 8 25 8 10 0 19 7 19 15 0
10 -11 13 -43 12 -23 -2 -49 -7 -57 -12 -13 -8 -13 -6 -1 8 9 11 21 15 37 11
14 -4 24 -2 24 5 0 6 6 9 13 7 6 -1 9 -1 4 1 -4 3 -5 9 -2 13 7 11 -46 40 -71
40 -11 0 -15 -6 -11 -19z m37 -1 c0 -5 -4 -10 -9 -10 -6 0 -13 5 -16 10 -3 6
1 10 9 10 9 0 16 -4 16 -10z m25 -20 c-11 -5 -27 -9 -35 -9 -9 0 -8 4 5 9 11
5 27 9 35 9 9 0 8 -4 -5 -9z m-100 -50 c3 -5 -3 -10 -15 -10 -12 0 -18 5 -15
10 3 6 10 10 15 10 5 0 12 -4 15 -10z"/>
<path d="M1643 1303 c8 -13 -14 -23 -48 -23 -34 0 -39 -27 -7 -39 15 -5 22
-10 16 -10 -7 -1 -25 5 -42 12 -35 15 -31 29 13 45 28 9 27 10 -17 8 -26 -1
-51 -5 -54 -9 -12 -12 36 -54 67 -61 32 -6 94 18 84 33 -3 5 2 11 10 15 8 3
15 11 14 18 0 10 -2 10 -6 1 -2 -7 -9 -13 -14 -13 -6 0 -8 4 -4 9 3 5 0 13 -6
17 -7 4 -9 3 -6 -3z m-23 -43 c-12 -8 -12 -10 -1 -10 8 0 12 -2 9 -5 -3 -3
-13 -2 -22 1 -14 5 -15 9 -4 15 7 5 18 9 23 9 6 0 3 -5 -5 -10z"/>
<path d="M1115 1290 c3 -5 11 -10 16 -10 6 0 7 5 4 10 -3 6 -11 10 -16 10 -6
0 -7 -4 -4 -10z"/>
<path d="M1191 1293 c-19 -3 -44 -11 -54 -18 -14 -10 -26 -11 -37 -5 -14 7
-19 5 -23 -10 -6 -23 3 -26 23 -7 12 10 12 9 2 -5 -9 -11 -10 -18 -2 -23 6 -3
8 -11 4 -16 -8 -13 -26 0 -18 14 3 7 -2 3 -10 -7 -25 -30 -20 -56 9 -56 19 0
26 7 31 28 10 41 24 53 57 50 26 -3 32 2 44 30 7 17 12 31 11 30 -2 0 -18 -3
-37 -5z m3 -29 c9 -24 7 -27 -9 -10 -17 17 -19 26 -6 26 5 0 12 -7 15 -16z
m-49 -14 c-3 -5 -10 -10 -16 -10 -5 0 -9 5 -9 10 0 6 7 10 16 10 8 0 12 -4 9
-10z m-45 -70 c0 -5 -4 -10 -10 -10 -5 0 -10 5 -10 10 0 6 5 10 10 10 6 0 10
-4 10 -10z"/>
<path d="M2680 1270 c0 -11 4 -20 9 -20 11 0 22 26 14 34 -12 12 -23 5 -23
-14z"/>
<path d="M113 1123 c-7 -3 -13 -14 -13 -26 0 -16 3 -18 12 -9 9 9 16 8 31 -6
18 -16 20 -16 38 7 10 13 19 19 19 14 0 -5 -6 -15 -12 -22 -11 -10 -10 -12 2
-9 15 3 50 40 50 53 0 4 -6 2 -14 -4 -10 -8 -16 -9 -21 -2 -6 10 -66 12 -92 4z"/>
<path d="M326 1058 c-3 -10 -8 -24 -10 -32 -3 -8 1 -17 9 -20 18 -7 29 28 16
51 -9 17 -10 17 -15 1z"/>
<path d="M32 1020 c-13 -21 -16 -78 -6 -104 5 -12 13 -8 39 20 29 31 50 86 37
99 -13 13 -58 3 -70 -15z"/>
<path d="M220 1005 c-13 -34 -14 -31 20 -45 17 -7 30 -16 30 -21 0 -17 27 -9
53 15 23 21 27 22 41 8 15 -15 16 -14 15 8 -1 37 -14 66 -23 52 -4 -7 -5 -16
-2 -21 9 -14 -90 5 -111 21 -9 7 -16 3 -23 -17z m97 -21 c-3 -3 -12 -4 -19 -1
-8 3 -5 6 6 6 11 1 17 -2 13 -5z"/>
<path d="M140 983 c0 -8 4 -12 8 -9 5 3 9 -1 9 -8 0 -8 -7 -12 -15 -9 -18 7
-35 -19 -19 -29 7 -4 -2 -8 -21 -8 -20 0 -31 -4 -27 -10 3 -6 -1 -13 -9 -16
-23 -9 -20 -27 9 -54 l24 -23 -4 47 c-3 29 -1 46 6 46 5 0 8 -4 5 -9 -3 -5 8
-11 25 -15 44 -8 51 -8 43 5 -5 8 -1 8 14 0 28 -15 35 -14 29 3 -3 8 -1 17 6
19 7 2 -2 3 -19 2 -17 -1 -37 -5 -44 -10 -9 -5 -11 -4 -6 3 4 7 2 12 -3 12 -6
0 -11 4 -11 8 0 5 7 9 15 9 8 0 11 -5 8 -10 -3 -6 -1 -7 5 -4 5 4 8 16 5 27
-4 14 0 20 11 20 28 0 17 18 -14 22 -21 3 -30 0 -30 -9z"/>
<path d="M210 956 c0 -2 7 -7 16 -10 8 -3 12 -2 9 4 -6 10 -25 14 -25 6z"/>
<path d="M310 912 c0 -4 -10 -8 -21 -9 -27 -2 -25 1 -32 -55 -8 -57 1 -60 47
-15 42 40 56 87 26 87 -11 0 -20 -4 -20 -8z"/>
<path d="M110 872 c0 -5 7 -9 15 -9 8 0 15 4 15 9 0 4 -7 8 -15 8 -8 0 -15 -4
-15 -8z"/>
<path d="M161 863 c5 -28 -2 -53 -13 -47 -6 4 -8 3 -5 -4 4 -5 17 -8 30 -5 24
7 66 32 54 34 -4 1 -11 3 -17 4 -5 1 -15 3 -21 4 -5 0 -7 6 -4 11 3 6 -1 10
-9 10 -9 0 -15 -3 -15 -7z"/>
<path d="M1775 1200 c-8 -13 3 -30 19 -30 8 0 24 8 36 18 l22 18 -35 2 c-20 1
-38 -2 -42 -8z"/>
<path d="M1841 1168 c-14 -10 -33 -17 -43 -15 -22 6 -25 -21 -3 -29 28 -11 64
5 71 32 9 33 4 36 -25 12z"/>
<path d="M2618 1193 c7 -3 16 -2 19 1 4 3 -2 6 -13 5 -11 0 -14 -3 -6 -6z"/>
<path d="M2425 1140 c-3 -5 -3 -15 1 -21 6 -11 23 6 24 24 0 10 -18 9 -25 -3z"/>
<path d="M1398 1022 c-10 -2 -18 -8 -18 -14 0 -5 -7 -7 -16 -4 -8 3 -12 2 -9
-4 6 -9 -8 -14 -27 -11 -9 1 -68 -78 -68 -91 0 -4 7 -8 16 -8 8 0 13 -4 9 -9
-3 -6 3 -15 14 -20 26 -14 34 -14 25 1 -4 6 -3 8 4 4 6 -3 23 -1 38 6 22 10
28 10 32 0 2 -6 8 -12 13 -12 4 0 6 7 3 15 -4 8 -1 15 5 15 22 0 26 2 41 14
22 19 41 29 38 19 -2 -4 2 -8 7 -8 6 0 9 3 8 7 -6 16 37 29 55 18 11 -8 12
-10 2 -7 -8 2 -23 -7 -33 -20 -14 -17 -25 -22 -39 -17 -15 4 -18 3 -13 -6 5
-8 4 -11 -2 -7 -6 4 -16 1 -22 -7 -12 -14 -58 -31 -75 -27 -4 1 -14 -3 -22 -9
-10 -9 -22 -8 -49 1 -19 7 -35 16 -35 20 0 4 -7 9 -15 13 -10 3 -15 -1 -15
-12 0 -11 9 -18 26 -19 14 0 31 -6 38 -13 8 -9 3 -11 -26 -8 -21 2 -38 0 -38
-4 0 -4 7 -8 15 -8 9 0 18 -7 21 -15 4 -8 10 -13 14 -10 15 9 70 13 70 4 0 -4
13 -1 30 7 16 9 34 13 40 9 5 -3 21 1 34 10 14 9 30 14 36 10 5 -3 10 -2 10 2
0 5 6 17 13 27 12 16 13 16 14 -4 1 -14 -9 -28 -30 -40 -35 -22 -30 -28 6 -8
12 7 27 13 32 14 16 3 81 44 70 44 -6 0 -21 -7 -33 -16 -29 -20 -29 -8 1 17
16 13 18 19 7 19 -12 0 -11 4 4 15 14 11 23 12 32 4 10 -8 12 -6 9 13 -4 24
-79 98 -99 98 -6 0 -3 -7 7 -14 22 -17 22 -21 -3 -23 -11 -1 -18 2 -15 7 9 14
-6 40 -19 33 -20 -13 -35 -11 -29 3 4 11 -4 13 -33 12 -22 -1 -47 -4 -56 -6z
m56 -47 c-7 -18 -85 -35 -100 -20 -16 13 -16 13 47 24 30 5 55 9 56 10 1 0 0
-6 -3 -14z m-108 -42 c-1 -1 -12 0 -24 4 -18 4 -20 8 -11 19 10 12 14 11 24
-3 8 -10 12 -19 11 -20z m271 9 c9 -15 7 -18 -7 -19 -11 -1 -17 5 -16 15 0 9
-5 16 -12 14 -8 -1 -11 2 -7 7 8 13 28 5 42 -17z"/>
<path d="M1664 904 c3 -9 6 -20 6 -25 0 -6 5 -7 10 -4 16 10 12 45 -6 45 -11
0 -14 -5 -10 -16z"/>
<path d="M1784 878 l-19 -23 23 19 c21 18 27 26 19 26 -2 0 -12 -10 -23 -22z"/>
<path d="M1365 860 c-3 -6 1 -7 9 -4 18 7 21 14 7 14 -6 0 -13 -4 -16 -10z"/>
<path d="M1155 752 c-27 -26 -53 -49 -58 -49 -21 -4 -24 -9 -11 -21 9 -8 14
-9 14 -2 0 6 5 8 12 4 6 -4 8 -3 4 4 -3 6 -2 13 4 17 9 6 14 -7 11 -27 0 -5 4
-8 9 -8 6 0 10 5 10 11 0 7 20 10 54 7 31 -2 52 1 48 6 -3 6 3 6 14 2 36 -15
81 -18 88 -7 5 7 -4 9 -26 6 -26 -4 -24 -2 11 9 25 8 48 13 52 10 4 -2 11 0
14 6 4 6 14 10 23 9 34 -3 53 1 47 11 -3 6 2 10 11 10 10 0 15 3 11 6 -3 4
-30 -1 -59 -11 -57 -19 -228 -36 -228 -22 0 4 -4 6 -8 3 -16 -10 -6 33 13 54
14 15 15 20 4 20 -8 0 -36 -22 -64 -48z"/>
<path d="M1590 775 c-25 -13 -40 -24 -35 -24 6 0 30 11 55 24 25 13 41 24 35
24 -5 0 -30 -11 -55 -24z"/>
<path d="M1405 780 c3 -6 -4 -10 -16 -10 -12 0 -20 -3 -16 -6 3 -3 20 -3 38 1
23 5 28 10 18 16 -19 12 -32 11 -24 -1z"/>
<path d="M1217 763 c-14 -13 -6 -33 12 -33 14 0 18 5 14 20 -5 21 -15 25 -26
13z"/>
<path d="M1328 753 c6 -2 18 -2 25 0 6 3 1 5 -13 5 -14 0 -19 -2 -12 -5z"/>
<path d="M1651 746 c-1 -14 -7 -17 -25 -14 -17 3 -23 0 -22 -11 1 -10 -7 -16
-21 -15 -13 0 -23 -3 -23 -8 0 -5 -4 -6 -10 -3 -6 3 -10 -4 -11 -17 0 -13 -3
-18 -5 -11 -4 8 -12 5 -26 -9 -19 -19 -33 -20 -78 -6 -8 3 -12 3 -7 1 4 -3 7
-9 7 -14 0 -6 -4 -7 -10 -4 -5 3 -10 1 -10 -4 0 -6 -8 -11 -17 -12 -15 0 -15
-2 2 -9 27 -12 37 -12 30 -1 -3 6 14 8 40 6 24 -2 47 0 50 6 4 5 17 9 31 9 13
0 24 5 24 10 0 6 9 10 21 10 11 0 18 4 15 9 -3 5 1 11 9 14 18 7 48 65 41 80
-2 7 -5 4 -5 -7z m-17 -41 c-4 -8 -10 -15 -15 -15 -4 0 -6 7 -3 15 4 8 10 15
15 15 4 0 6 -7 3 -15z"/>
<path d="M1160 672 c0 -5 14 -7 30 -4 17 2 30 6 30 8 0 2 -13 4 -30 4 -16 0
-30 -4 -30 -8z"/>
<path d="M1468 653 c7 -3 16 -2 19 1 4 3 -2 6 -13 5 -11 0 -14 -3 -6 -6z"/>
<path d="M2121 864 c10 -13 10 -17 -2 -25 -10 -6 -5 -9 19 -9 22 0 32 5 32 15
0 8 -5 15 -11 15 -5 0 -7 5 -4 10 4 6 -5 10 -21 10 -23 0 -25 -2 -13 -16z"/>
<path d="M891 881 c-13 -8 -13 -12 -1 -26 11 -14 11 -18 1 -25 -10 -6 -8 -10
9 -15 15 -5 28 -2 38 9 12 11 13 16 4 16 -8 0 -12 9 -10 22 3 25 -18 34 -41
19z m29 -36 c0 -5 -5 -3 -10 5 -5 8 -10 20 -10 25 0 6 5 3 10 -5 5 -8 10 -19
10 -25z"/>
<path d="M600 872 c-8 -3 -19 -11 -23 -19 -5 -7 -12 -11 -16 -9 -4 3 -8 -1 -8
-9 0 -11 4 -12 14 -4 10 9 13 8 13 -4 0 -14 -35 -54 -74 -85 -9 -7 -16 -22
-16 -34 0 -24 7 -20 24 13 6 12 14 21 19 20 4 -1 20 5 36 13 16 9 31 13 33 10
5 -4 9 38 9 79 0 9 4 15 8 12 5 -2 15 3 22 13 13 15 12 16 -3 4 -9 -7 -18 -9
-20 -4 -1 5 -10 7 -18 4z"/>
<path d="M686 856 c12 -48 2 -66 -101 -193 -15 -18 -34 -33 -42 -33 -27 0 -8
-35 29 -52 50 -24 118 -34 118 -19 0 7 4 10 9 7 5 -3 11 1 15 9 6 18 -7 19
-35 4 -12 -6 -37 -8 -61 -4 l-40 7 28 18 c15 11 31 17 35 14 4 -2 10 15 14 37
7 42 49 94 66 83 12 -7 29 40 29 80 0 36 -11 49 -48 61 -21 6 -22 4 -16 -19z
m44 -6 c0 -5 -2 -10 -4 -10 -3 0 -8 5 -11 10 -3 6 -1 10 4 10 6 0 11 -4 11
-10z m-127 -225 c-3 -9 -8 -14 -10 -11 -3 3 -2 9 2 15 9 16 15 13 8 -4z"/>
<path d="M787 790 c3 -11 9 -17 15 -14 5 3 4 12 -3 20 -16 19 -18 18 -12 -6z"/>
<path d="M758 765 c-4 -18 -1 -25 11 -25 10 -1 7 -6 -10 -15 -32 -17 -46 -55
-18 -48 9 3 15 11 13 18 -7 16 12 29 21 15 3 -5 1 -10 -5 -10 -6 0 -8 -4 -5
-10 3 -5 1 -19 -5 -30 -6 -12 -7 -20 -1 -20 5 0 12 6 14 13 4 7 6 6 6 -5 1 -9
-4 -18 -11 -20 -8 -3 -9 -6 -1 -11 6 -4 19 3 29 15 11 12 14 18 8 15 -7 -4
-15 0 -18 9 -10 26 -7 32 14 27 17 -4 20 -1 18 21 -1 14 -6 26 -11 26 -5 0 -6
-7 -3 -16 4 -10 1 -14 -6 -11 -7 2 -13 10 -13 18 0 8 -4 19 -8 26 -4 6 -4 18
-1 27 3 9 2 16 -4 16 -5 0 -12 -11 -14 -25z"/>
<path d="M630 749 c0 -5 5 -7 10 -4 6 3 10 8 10 11 0 2 -4 4 -10 4 -5 0 -10
-5 -10 -11z"/>
<path d="M671 642 c-13 -28 -28 -49 -32 -46 -4 2 -10 0 -14 -6 -4 -6 4 -9 19
-8 13 1 23 5 20 9 -2 4 0 10 6 14 5 3 10 1 10 -5 0 -6 5 -8 11 -4 8 5 8 9 -1
14 -9 6 -9 12 0 29 6 12 10 29 8 38 -2 10 -13 -5 -27 -35z"/>
<path d="M500 662 c0 -4 10 -9 22 -9 18 -2 20 0 8 7 -18 12 -30 13 -30 2z"/>
<path d="M710 639 c0 -5 5 -7 10 -4 6 3 10 8 10 11 0 2 -4 4 -10 4 -5 0 -10
-5 -10 -11z"/>
<path d="M729 608 c-6 -19 -6 -38 0 -38 10 0 31 22 31 32 0 7 -29 12 -31 6z"/>
<path d="M1870 667 c0 -33 -4 -39 -42 -58 -47 -24 -38 -39 24 -39 34 0 38 -3
44 -35 8 -47 19 -51 34 -14 14 33 37 49 71 49 22 0 22 0 -5 29 -27 28 -27 30
-12 60 18 34 12 39 -18 16 -27 -21 -46 -19 -73 7 l-23 21 0 -36z"/>
<path d="M2266 661 c-3 -5 -15 -7 -27 -4 -17 5 -20 2 -17 -13 2 -10 13 -20 24
-22 24 -3 58 24 49 39 -8 12 -22 12 -29 0z"/>
<path d="M2285 410 c-3 -6 1 -13 10 -16 19 -8 30 0 20 15 -8 14 -22 14 -30 1z"/>
<path d="M413 532 c-7 -13 -7 -21 2 -29 20 -18 37 7 21 29 -11 15 -13 15 -23
0z"/>
<path d="M2237 443 c-4 -3 -7 -11 -7 -17 0 -6 5 -5 12 2 6 6 9 14 7 17 -3 3
-9 2 -12 -2z"/>
<path d="M1025 461 c-3 -5 -1 -12 5 -16 5 -3 10 1 10 9 0 18 -6 21 -15 7z"/>
<path d="M1153 335 c0 -6 5 -12 11 -12 6 0 25 -4 41 -8 40 -10 21 12 -22 24
-21 6 -30 5 -30 -4z"/>
<path d="M2481 249 c-16 -13 -27 -16 -31 -9 -4 7 -13 3 -24 -9 -10 -11 -31
-23 -47 -26 -37 -8 -61 -46 -38 -61 5 -3 9 0 9 5 0 7 7 7 20 -1 20 -13 27 -52
11 -62 -5 -3 -15 1 -22 10 -10 12 -10 15 2 12 8 -2 14 4 14 12 0 9 -9 14 -25
14 -16 0 -24 -5 -22 -14 3 -11 0 -11 -12 0 -9 7 -16 9 -16 6 0 -13 44 -66 54
-66 6 0 4 5 -4 11 -12 8 -9 9 12 5 24 -6 30 -2 47 34 16 33 17 40 5 40 -9 0
-13 4 -10 9 3 5 15 7 26 4 19 -5 19 -7 5 -23 -8 -9 -15 -22 -15 -29 0 -22 23
-6 41 29 10 18 24 38 31 44 6 6 6 2 -2 -9 -15 -20 -14 -20 8 -1 23 20 27 27
15 25 -30 -5 -33 2 -19 36 8 19 14 35 13 35 -1 -1 -13 -10 -26 -21z m-96 -79
c-3 -4 -15 -6 -27 -2 -21 5 -21 6 -2 12 21 8 37 3 29 -10z m50 10 c-3 -5 -12
-7 -20 -3 -21 7 -19 13 6 13 11 0 18 -4 14 -10z"/>
<path d="M416 345 c4 -8 15 -15 26 -15 17 0 18 3 8 15 -7 8 -19 15 -26 15 -8
0 -11 -6 -8 -15z"/>
<path d="M347 343 c-11 -10 -8 -43 3 -43 15 0 24 30 13 41 -5 5 -12 6 -16 2z"/>
<path d="M400 295 c0 -9 5 -15 11 -13 6 2 11 8 11 13 0 5 -5 11 -11 13 -6 2
-11 -4 -11 -13z"/>
<path d="M360 261 c0 -11 26 -22 34 -14 3 3 3 10 0 14 -7 12 -34 11 -34 0z"/>
<path d="M440 260 c0 -5 5 -10 10 -10 6 0 10 5 10 10 0 6 -4 10 -10 10 -5 0
-10 -4 -10 -10z"/>
<path d="M599 298 c-6 -15 -4 -60 3 -64 4 -3 6 -9 3 -14 -3 -4 3 -14 12 -21
15 -12 16 -12 8 1 -6 8 -10 22 -10 30 0 8 -3 20 -6 25 -4 6 -5 18 -4 28 3 14
-2 25 -6 15z"/>
<path d="M1705 271 c-68 -32 -100 -63 -91 -86 5 -14 9 -14 41 -1 43 18 46 12
5 -9 -16 -9 -30 -20 -30 -26 0 -33 112 -14 184 32 l47 29 -20 27 c-12 14 -21
33 -21 42 0 27 -49 24 -115 -8z m75 -41 c0 -23 -24 -43 -47 -38 -25 5 -24 50
1 65 24 13 46 1 46 -27z"/>
<path d="M1756 247 c3 -10 9 -15 12 -12 3 3 0 11 -7 18 -10 9 -11 8 -5 -6z"/>
<path d="M1830 285 c0 -8 4 -15 8 -15 5 0 9 7 9 15 0 8 -4 15 -9 15 -4 0 -8
-7 -8 -15z"/>
<path d="M1530 280 c-11 -7 -8 -11 15 -20 17 -7 35 -13 40 -14 6 -1 15 -5 22
-9 6 -4 15 -2 19 4 4 8 3 9 -4 5 -7 -4 -12 -3 -12 2 0 5 10 13 23 16 21 7 21
7 2 16 -27 12 -87 12 -105 0z"/>
<path d="M1696 105 c18 -15 18 -15 -8 -9 -18 4 -28 2 -28 -5 0 -6 6 -11 12
-11 7 0 2 -7 -10 -16 -21 -15 -31 -44 -14 -44 12 0 72 64 72 77 0 6 -7 14 -16
17 -26 10 -29 7 -8 -9z"/>
<path d="M1168 219 c-13 -7 -18 -22 -17 -52 1 -42 1 -42 11 -12 5 17 10 36 10
43 1 6 7 12 15 12 7 0 13 5 13 10 0 13 -10 12 -32 -1z"/>
<path d="M2746 205 c-20 -15 -21 -39 -2 -55 17 -13 63 -10 58 4 -2 5 2 12 8
16 18 11 -3 43 -28 45 -11 1 -27 -4 -36 -10z m54 -15 c0 -5 -4 -10 -10 -10 -5
0 -10 5 -10 10 0 6 5 10 10 10 6 0 10 -4 10 -10z m-40 -10 c0 -5 -4 -10 -10
-10 -5 0 -10 5 -10 10 0 6 5 10 10 10 6 0 10 -4 10 -10z m25 -20 c3 -5 -1 -10
-10 -10 -9 0 -13 5 -10 10 3 6 8 10 10 10 2 0 7 -4 10 -10z"/>
<path d="M696 132 c-3 -5 1 -9 9 -9 8 0 12 4 9 9 -3 4 -7 8 -9 8 -2 0 -6 -4
-9 -8z"/>
<path d="M787 1753 c3 -7 -2 -16 -11 -19 -19 -7 -21 -35 -5 -51 7 -7 26 -10
43 -7 24 5 28 3 16 -5 -12 -9 -8 -10 15 -5 52 12 56 20 29 73 -14 28 -20 31
-54 29 -25 -2 -36 -7 -33 -15z m50 -59 c-3 -3 -12 -4 -19 -1 -8 3 -5 6 6 6 11
1 17 -2 13 -5z m40 -10 c-3 -3 -12 -4 -19 -1 -8 3 -5 6 6 6 11 1 17 -2 13 -5z"/>
<path d="M1215 1758 c25 -15 123 -18 134 -5 7 9 -12 12 -71 13 -53 1 -74 -2
-63 -8z"/>
<path d="M1986 1755 c-11 -8 -17 -18 -13 -21 3 -3 16 3 28 15 26 24 14 28 -15
6z"/>
<path d="M2100 1761 c0 -8 -3 -11 -6 -8 -10 10 -45 -13 -38 -24 3 -6 8 -8 12
-5 3 3 11 -2 18 -12 9 -11 13 -13 14 -4 0 7 5 10 10 7 6 -4 8 -14 5 -24 -3 -9
2 -26 10 -37 8 -10 15 -14 15 -7 0 6 -4 15 -10 18 -5 3 -10 11 -10 16 0 6 4 8
9 4 22 -13 20 18 -4 52 -14 21 -25 31 -25 24z m26 -42 l16 -24 -21 24 c-12 13
-21 18 -21 12 0 -7 -4 -9 -10 -6 -15 9 -12 24 5 21 9 -1 22 -13 31 -27z"/>
<path d="M2803 1559 c9 -5 17 -15 17 -20 0 -6 -4 -7 -10 -4 -5 3 -10 3 -10 -2
0 -13 26 -82 33 -89 7 -8 -1 45 -10 59 -3 5 -1 12 6 16 13 8 -14 51 -32 51 -7
0 -4 -5 6 -11z"/>
<path d="M22 1450 c-12 -5 -22 -11 -22 -14 0 -7 40 6 46 15 6 10 6 10 -24 -1z"/>
<path d="M53 1433 c-7 -15 -11 -28 -9 -31 6 -6 28 38 24 48 -2 5 -9 -3 -15
-17z"/>
<path d="M2665 1390 c8 -13 42 -18 42 -6 0 6 -11 12 -24 12 -12 1 -21 -2 -18
-6z"/>
<path d="M2777 1191 c-19 -43 -22 -65 -7 -56 6 4 8 11 5 16 -4 5 2 9 12 10 10
0 13 3 6 5 -9 4 -9 13 -2 31 15 41 4 37 -14 -6z"/>
<path d="M3 1184 c0 -16 13 -19 21 -5 3 5 0 11 -7 14 -8 3 -14 -1 -14 -9z"/>
<path d="M2650 1140 c-8 -5 -10 -10 -5 -10 6 0 17 5 25 10 8 5 11 10 5 10 -5
0 -17 -5 -25 -10z"/>
<path d="M2811 651 l-25 -19 27 5 c15 3 27 12 27 19 0 17 0 17 -29 -5z"/>
<path d="M45 558 c-19 -11 -19 -11 0 -18 11 -4 20 -13 20 -20 0 -7 14 -18 30
-23 17 -6 32 -14 35 -18 3 -4 14 -7 24 -6 10 1 21 -5 24 -13 3 -11 2 -12 -8
-4 -13 13 -53 7 -45 -6 10 -16 -28 -3 -40 13 -13 18 -55 23 -55 7 0 -5 5 -10
11 -10 5 0 7 -5 4 -10 -3 -6 2 -13 12 -17 23 -8 63 -44 63 -56 0 -5 -7 -3 -17
4 -15 13 -15 12 -2 -8 8 -13 17 -23 22 -23 4 0 5 5 2 10 -3 6 -1 10 4 10 6 0
11 -4 11 -10 0 -5 7 -10 16 -10 9 0 12 5 8 12 -5 7 -2 9 8 6 8 -4 21 -2 28 2
11 7 11 11 1 24 -10 12 -11 19 -2 30 8 10 9 16 1 21 -16 10 -12 25 6 18 9 -3
20 -15 24 -27 l9 -21 0 21 c1 12 -6 25 -15 28 -8 3 -12 10 -9 16 3 5 1 10 -4
10 -15 0 -51 32 -51 46 0 7 -10 9 -25 6 -17 -3 -27 1 -31 12 -7 19 -31 20 -59
4z m45 -2 c0 -11 -19 -15 -25 -6 -3 5 1 10 9 10 9 0 16 -2 16 -4z"/>
<path d="M171 539 c22 -32 45 -46 56 -35 7 7 -56 65 -70 66 -5 0 2 -14 14 -31z"/>
<path d="M10 419 c13 -25 59 -68 74 -69 9 0 -63 83 -77 89 -5 2 -3 -7 3 -20z"/>
<path d="M2650 411 c0 -11 19 -25 38 -27 8 -2 11 3 8 13 -3 8 -6 17 -6 19 0 2
-9 4 -20 4 -11 0 -20 -4 -20 -9z"/>
<path d="M2740 406 c0 -2 9 -6 20 -9 11 -3 18 -1 14 4 -5 9 -34 13 -34 5z"/>
<path d="M2813 377 c2 -20 19 -25 26 -6 2 6 -1 9 -7 5 -6 -3 -13 0 -16 6 -3 7
-5 5 -3 -5z"/>
<path d="M2180 116 c0 -2 7 -7 16 -10 8 -3 12 -2 9 4 -6 10 -25 14 -25 6z"/>
<path d="M1281 53 c-38 -46 -38 -53 -5 -53 14 0 23 4 19 10 -3 6 -1 10 4 10 6
0 11 -4 11 -10 0 -5 6 -10 13 -10 8 0 13 16 15 45 2 57 -15 59 -57 8z"/>
<path d="M2545 50 c-3 -5 -1 -10 4 -10 6 0 11 5 11 10 0 6 -2 10 -4 10 -3 0
-8 -4 -11 -10z"/>
<path d="M2270 42 c0 -7 -4 -10 -10 -7 -13 8 -13 -5 0 -25 8 -12 10 -12 10 5
0 17 2 17 10 5 5 -8 10 -10 10 -5 0 6 -5 17 -10 25 -7 11 -10 11 -10 2z"/>
<path d="M466 28 c-30 -17 -16 -28 34 -28 38 0 50 4 50 15 0 8 -6 15 -12 16
-7 0 -23 2 -35 3 -12 1 -29 -1 -37 -6z"/>
<path d="M895 10 c-3 -5 3 -10 15 -10 12 0 18 5 15 10 -3 6 -10 10 -15 10 -5
0 -12 -4 -15 -10z"/>
</g>
</svg>
