<?xml version="1.0" encoding="UTF-8"?>
<svg version="1.1" xmlns="http://www.w3.org/2000/svg" width="270" height="480">
<path d="M0 0 C89.1 0 178.2 0 270 0 C270 158.4 270 316.8 270 480 C180.9 480 91.8 480 0 480 C0 321.6 0 163.2 0 0 Z " fill="#545187" transform="translate(0,0)"/>
<path d="M0 0 C6.4705293 3.71735974 8.93799745 9.00471179 11 16 C15.03875369 33.35442465 12.19770878 53.66385023 9 71 C8.7834375 72.18851562 8.566875 73.37703125 8.34375 74.6015625 C6.36066729 83.73790782 2.74896375 94.27732128 -5.015625 100.06640625 C-8.97552288 101.92942907 -12.77513993 101.94871656 -17 101 C-18.95763989 99.85837032 -20.61012563 98.5627992 -22.3671875 97.13671875 C-24.13808508 95.74522788 -24.13808508 95.74522788 -27.3125 95.3125 C-31.82540735 96.15388951 -34.68155823 98.12764731 -38.5 100.58984375 C-42.15818622 102.65328941 -44.81612161 103 -49 103 C-50.485 102.01 -50.485 102.01 -52 101 C-52.51171875 98.3984375 -52.51171875 98.3984375 -52.6875 95.375 C-52.75324219 94.37210937 -52.81898437 93.36921875 -52.88671875 92.3359375 C-52.92410156 91.56507813 -52.96148437 90.79421875 -53 90 C-58.9605247 88.01315843 -64.28675229 88.59442202 -70 91 C-76.34375 91.4375 -76.34375 91.4375 -80 89 C-80.72152544 83.34688319 -79.16997815 79.33053047 -76.5625 74.4375 C-76.20051514 73.73189941 -75.83853027 73.02629883 -75.46557617 72.29931641 C-73.18112608 67.9402777 -70.62854686 63.91654873 -67.8125 59.875 C-62.0988553 51.60221117 -58.54964717 42.10511996 -54.78051758 32.83544922 C-48.84934286 18.4139056 -39.40815879 3.19354017 -24.45703125 -3.2578125 C-15.95753953 -5.82522653 -7.90539758 -3.56802147 0 0 Z " fill="#FBFBFB" transform="translate(161,195)"/>
<path d="M0 0 C1.3125 2.1875 1.3125 2.1875 2 4 C2.99 4.495 2.99 4.495 4 5 C9.87098269 16.16594443 9.13505312 27.77019007 9 40 C11.97 40 14.94 40 18 40 C18.33 37.69 18.66 35.38 19 33 C21.23551759 36.35327639 21.17283528 36.90743657 20.625 40.6875 C20.51414062 41.49574219 20.40328125 42.30398437 20.2890625 43.13671875 C20.19367188 43.75160156 20.09828125 44.36648437 20 45 C20.66 44.67 21.32 44.34 22 44 C22 42.68 22 41.36 22 40 C23.485 40.495 23.485 40.495 25 41 C24.67 42.98 24.34 44.96 24 47 C16.57142857 49.42857143 16.57142857 49.42857143 13 48 C13.99 47.67 14.98 47.34 16 47 C16 45.35 16 43.7 16 42 C13.36 42 10.72 42 8 42 C8.020625 43.216875 8.04125 44.43375 8.0625 45.6875 C8.05677761 48.91492629 7.94361645 51.88606572 7 55 C6.01 55.495 6.01 55.495 5 56 C4.9906543 55.00782471 4.98130859 54.01564941 4.97167969 52.9934082 C4.93126326 49.24867776 4.8653736 45.50472522 4.79248047 41.76049805 C4.76456583 40.15187713 4.74320746 38.54312657 4.72900391 36.93432617 C4.62564768 25.87865505 4.50368979 13.88709467 -2.125 4.4375 C-8.77847577 -1.20349033 -17.67979163 -3.49668555 -26.296875 -3.3203125 C-34.14529327 -2.39029762 -39.65826074 2.21542896 -45.1875 7.5625 C-45.6623584 8.01399414 -46.1372168 8.46548828 -46.62646484 8.93066406 C-54.69929542 17.18437502 -59.06862701 28.06127994 -63.25 38.625 C-67.55276623 49.16425861 -72.66361638 58.56950334 -78.81347656 68.11474609 C-85.00670726 77.85078358 -85.00670726 77.85078358 -86 89 C-82.96967558 90.51516221 -80.34885038 90.17028053 -77 90 C-75.824375 89.505 -75.824375 89.505 -74.625 89 C-70.74137028 87.52052201 -67.10218052 87.40959271 -63 88 C-60.5 89.4375 -60.5 89.4375 -59 92 C-58.40179278 94.99619307 -58.13034432 97.94994291 -58 101 C-54.31804568 102.0184129 -52.20379963 102.55948406 -48.671875 100.91796875 C-47.13028373 99.9914826 -45.60897008 99.03014698 -44.11328125 98.03125 C-42 97 -42 97 -39.73046875 97.34375 C-39.15941406 97.5603125 -38.58835938 97.776875 -38 98 C-38.804375 98.61875 -39.60875 99.2375 -40.4375 99.875 C-43.03874519 101.74164041 -43.03874519 101.74164041 -44 104 C-48.74429305 105.7079455 -52.96910718 106.56953504 -58 106 C-60.375 104.5625 -60.375 104.5625 -62 102 C-62.45151515 99.63058107 -62.68630203 97.33341322 -62.82421875 94.92578125 C-62.79352634 92.99317253 -62.79352634 92.99317253 -64 92 C-65.43502524 92.04421227 -66.86809612 92.15600948 -68.296875 92.296875 C-69.1734375 92.36777344 -70.05 92.43867188 -70.953125 92.51171875 C-72.80359409 92.66937045 -74.65273206 92.84360716 -76.5 93.03515625 C-83.2645316 93.53952922 -83.2645316 93.53952922 -87.09375 90.73046875 C-89.08482629 87.87849676 -89.84609021 85.98249978 -89.609375 82.484375 C-87.27262546 72.95762686 -80.92529881 64.09591863 -75.77734375 55.875 C-72.20991703 50.10439327 -69.65980668 44.18348 -67.1875 37.875 C-62.80349588 26.74155198 -58.04907774 16.02362975 -50 7 C-49.16855469 6.06414062 -49.16855469 6.06414062 -48.3203125 5.109375 C-34.68607602 -9.34165905 -16.61479293 -11.18955442 0 0 Z " fill="#22222E" transform="translate(168,195)"/>
<path d="M0 0 C1.2375 0.1546875 1.2375 0.1546875 2.5 0.3125 C4.6519437 3.54041555 4.70086443 4.59650809 4.5 8.3125 C5.11875 8.43625 5.7375 8.56 6.375 8.6875 C8.5 9.3125 8.5 9.3125 10.5 11.3125 C10.25 14.375 10.25 14.375 9.5 17.3125 C8.84 17.6425 8.18 17.9725 7.5 18.3125 C7.355625 19.116875 7.21125 19.92125 7.0625 20.75 C6.5 23.3125 6.5 23.3125 3.5 25.3125 C1.16800612 25.39155064 -1.16832622 25.40048769 -3.5 25.3125 C-3.83 27.2925 -4.16 29.2725 -4.5 31.3125 C-5.82 30.6525 -7.14 29.9925 -8.5 29.3125 C-7.51 29.3125 -6.52 29.3125 -5.5 29.3125 C-5.5 27.0025 -5.5 24.6925 -5.5 22.3125 C-7.15 21.9825 -8.8 21.6525 -10.5 21.3125 C-11.29953138 18.02553767 -11.59658936 16.60226808 -10.5 13.3125 C-10.5 12.44625 -10.5 11.58 -10.5 10.6875 C-10.5 8.3125 -10.5 8.3125 -9.5 7.3125 C-7.83382885 7.27186168 -6.16611905 7.269779 -4.5 7.3125 C-4.54125 6.52875 -4.5825 5.745 -4.625 4.9375 C-4.45363857 1.33890987 -3.56706185 0.44588273 0 0 Z " fill="#351E25" transform="translate(191.5,204.6875)"/>
<path d="M0 0 C2.0625 0.4375 2.0625 0.4375 4 1 C3.67 3.31 3.34 5.62 3 8 C4.65 8 6.3 8 8 8 C8.33 9.65 8.66 11.3 9 13 C7.35 13 5.7 13 4 13 C4.33 15.31 4.66 17.62 5 20 C3.35 20 1.7 20 0 20 C-0.33 18.68 -0.66 17.36 -1 16 C-3.31 16.33 -5.62 16.66 -8 17 C-8 16.01 -8 15.02 -8 14 C-7.34 13.67 -6.68 13.34 -6 13 C-6.33 11.02 -6.66 9.04 -7 7 C-4.03 7.495 -4.03 7.495 -1 8 C-1.020625 6.865625 -1.04125 5.73125 -1.0625 4.5625 C-1 1 -1 1 0 0 Z " fill="#C38A77" transform="translate(190,207)"/>
<path d="M0 0 C7.75 -0.125 7.75 -0.125 10 1 C9.74781231 7.38034861 9.43858882 12.18096071 5 17 C3.68 17 2.36 17 1 17 C0 16 0 16 -0.09765625 12.40234375 C-0.0909822 10.91403133 -0.07902183 9.42573568 -0.0625 7.9375 C-0.05798828 7.17888672 -0.05347656 6.42027344 -0.04882812 5.63867188 C-0.0370068 3.75908129 -0.01907078 1.87953101 0 0 Z " fill="#EFEFEF" transform="translate(117,243)"/>
<path d="M0 0 C0.66 0 1.32 0 2 0 C1.67 1.98 1.34 3.96 1 6 C0.34 6 -0.32 6 -1 6 C-1 6.66 -1 7.32 -1 8 C-1.66 8 -2.32 8 -3 8 C-3.16628906 8.89138672 -3.16628906 8.89138672 -3.3359375 9.80078125 C-4.45516473 13.50739848 -6.91995864 15.75053159 -10 18 C-15.22181738 19.51907415 -18.97562266 18.97386252 -24 17 C-25.88043881 15.8044368 -27.65109371 14.52779669 -29.421875 13.17578125 C-31.18284731 11.86376971 -32.99129334 10.88383093 -35 10 C-30.81413263 9.66513061 -28.67579514 9.51943456 -25.1875 12 C-20.76289518 14.77622263 -17.09370299 15.05108157 -12 14 C-6.76935452 11.23321069 -3.82542 6.61015113 -1.04296875 1.5390625 C-0.69878906 1.03117187 -0.35460937 0.52328125 0 0 Z " fill="#201E2E" transform="translate(166,281)"/>
<path d="M0 0 C2.64 0 5.28 0 8 0 C8 1.65 8 3.3 8 5 C7.01 5.495 7.01 5.495 6 6 C8.31 6 10.62 6 13 6 C13 9.3 13 12.6 13 16 C12.01 16 11.02 16 10 16 C10 13.36 10 10.72 10 8 C8.7625 8.350625 7.525 8.70125 6.25 9.0625 C3.096708 9.95593273 1.13225836 10.00881294 -2 9 C-1.67 8.67 -1.34 8.34 -1 8 C-0.76924918 6.65252916 -0.58846937 5.29622435 -0.4375 3.9375 C-0.293125 2.638125 -0.14875 1.33875 0 0 Z " fill="#1B1A38" transform="translate(176,237)"/>
<path d="M0 0 C11.58491442 -0.44493981 20.27624062 0.51749375 30 7 C30.33 7.99 30.66 8.98 31 10 C26.86877325 10 24.91419244 9.30925704 21.1875 7.6875 C20.12402344 7.23246094 19.06054688 6.77742187 17.96484375 6.30859375 C16.28336601 5.56643954 14.60565707 4.81517514 12.94140625 4.03515625 C8.57561558 2.0085421 4.74719106 1.41642027 0 1 C0 0.67 0 0.34 0 0 Z " fill="#252436" transform="translate(138,188)"/>
<path d="M0 0 C2.0625 0.4375 2.0625 0.4375 4 1 C3.67 3.31 3.34 5.62 3 8 C4.65 8 6.3 8 8 8 C7.67 9.32 7.34 10.64 7 12 C5.68 12 4.36 12 3 12 C3 11.34 3 10.68 3 10 C1.02 10.33 -0.96 10.66 -3 11 C-3.33 11.99 -3.66 12.98 -4 14 C-4.66 13.67 -5.32 13.34 -6 13 C-6.625 9.9375 -6.625 9.9375 -7 7 C-4.03 7.495 -4.03 7.495 -1 8 C-1.020625 6.865625 -1.04125 5.73125 -1.0625 4.5625 C-1 1 -1 1 0 0 Z " fill="#D28D76" transform="translate(190,207)"/>
<path d="M0 0 C-0.33 2.97 -0.66 5.94 -1 9 C0.65 8.67 2.3 8.34 4 8 C4 7.01 4 6.02 4 5 C4.99 5 5.98 5 7 5 C6.34 6.32 5.68 7.64 5 9 C4.34 9 3.68 9 3 9 C2.67 9.99 2.34 10.98 2 12 C0.125 11.4375 0.125 11.4375 -2 10 C-3.25 6.375 -3.25 6.375 -4 3 C-5.65 3 -7.3 3 -9 3 C-9.66 4.98 -10.32 6.96 -11 9 C-12.32 8.67 -13.64 8.34 -15 8 C-15 7.34 -15 6.68 -15 6 C-14.01 6 -13.02 6 -12 6 C-12.33 4.68 -12.66 3.36 -13 2 C-12.34 2 -11.68 2 -11 2 C-11 1.34 -11 0.68 -11 0 C-7.01803543 -1.05404945 -4.01804691 -0.84098656 0 0 Z " fill="#505077" transform="translate(198,203)"/>
<path d="M0 0 C2.23551759 3.35327639 2.17283528 3.90743657 1.625 7.6875 C1.45871094 8.89986328 1.45871094 8.89986328 1.2890625 10.13671875 C1.19367188 10.75160156 1.09828125 11.36648437 1 12 C1.66 11.67 2.32 11.34 3 11 C3 9.68 3 8.36 3 7 C3.99 7.33 4.98 7.66 6 8 C5.67 9.98 5.34 11.96 5 14 C-2.42857143 16.42857143 -2.42857143 16.42857143 -6 15 C-5.01 14.67 -4.02 14.34 -3 14 C-3 12.02 -3 10.04 -3 8 C-4.65 8 -6.3 8 -8 8 C-8 7.67 -8 7.34 -8 7 C-5.69 7 -3.38 7 -1 7 C-0.67 4.69 -0.34 2.38 0 0 Z " fill="#191720" transform="translate(187,228)"/>
<path d="M0 0 C0.66 0 1.32 0 2 0 C2 4.95 2 9.9 2 15 C5.6327391 12.57817393 5.68131947 11.49554883 6.6875 7.375 C6.93886719 6.37210938 7.19023438 5.36921875 7.44921875 4.3359375 C7.63097656 3.56507813 7.81273438 2.79421875 8 2 C8.66 2 9.32 2 10 2 C9.73425934 7.97916482 9.16474492 12.35928423 5 17 C3.68 17 2.36 17 1 17 C0 16 0 16 -0.09765625 12.40234375 C-0.0909822 10.91403133 -0.07902183 9.42573568 -0.0625 7.9375 C-0.05798828 7.17888672 -0.05347656 6.42027344 -0.04882812 5.63867188 C-0.0370068 3.75908129 -0.01907078 1.87953101 0 0 Z " fill="#323232" transform="translate(117,243)"/>
<path d="M0 0 C0 0.33 0 0.66 0 1 C-1.23363281 1.02126953 -1.23363281 1.02126953 -2.4921875 1.04296875 C-9.55204498 1.34460238 -14.74298785 2.28429649 -20.87890625 5.84375 C-22.96280829 6.97972606 -24.65821336 7.64353353 -27 8 C-27.66 7.67 -28.32 7.34 -29 7 C-19.50379513 -1.37460587 -12.26306871 -2.72512638 0 0 Z " fill="#181823" transform="translate(152,190)"/>
<path d="M0 0 C0.33 0 0.66 0 1 0 C1.22142557 5.44992624 0.46957209 10.05910628 -0.9375 15.3125 C-1.11990234 16.02728516 -1.30230469 16.74207031 -1.49023438 17.47851562 C-2.83668664 22.67337329 -2.83668664 22.67337329 -4 25 C-4.66 25 -5.32 25 -6 25 C-5.54240047 18.4491015 -4.7899856 12.3246158 -3 6 C-2.34 6 -1.68 6 -1 6 C-1.020625 5.195625 -1.04125 4.39125 -1.0625 3.5625 C-1 1 -1 1 0 0 Z " fill="#22232C" transform="translate(173,255)"/>
<path d="M0 0 C2.56616632 3.84924948 2.55097676 6.4349304 3 11 C1.02 11.66 -0.96 12.32 -3 13 C-5 11 -5 11 -5.125 7.375 C-5.08375 6.26125 -5.0425 5.1475 -5 4 C-4.0409375 3.8453125 -4.0409375 3.8453125 -3.0625 3.6875 C-2.381875 3.460625 -1.70125 3.23375 -1 3 C-0.67 2.01 -0.34 1.02 0 0 Z " fill="#E2E2E2" transform="translate(169,205)"/>
<path d="M0 0 C0.93423645 3.01031744 1.04449911 3.86650268 0 7 C-0.03954234 9.33299825 -0.04401732 11.66708189 0 14 C2.64458379 15.32229189 4.67761301 15.09677194 7.625 15.0625 C8.62789062 15.05347656 9.63078125 15.04445313 10.6640625 15.03515625 C11.43492188 15.02355469 12.20578125 15.01195312 13 15 C13 15.66 13 16.32 13 17 C9.27016034 18.19354869 5.89176961 18.40965996 2 18 C-0.90757389 16.02037522 -2.66093205 14.6016924 -3.41015625 11.0625 C-3.6055568 6.57678293 -2.74501615 3.66002153 0 0 Z " fill="#191828" transform="translate(82,270)"/>
<path d="M0 0 C0.33 0.66 0.66 1.32 1 2 C1.804375 2.268125 2.60875 2.53625 3.4375 2.8125 C6 4 6 4 7.3125 6.1875 C8.13042189 9.53354408 8.13458258 12.56814415 8 16 C5 15 5 15 3.90234375 12.85546875 C3.58394531 11.97503906 3.26554688 11.09460938 2.9375 10.1875 C1.77223036 7.01927693 0.56894978 3.99146424 -1 1 C-0.67 0.67 -0.34 0.34 0 0 Z " fill="#15151B" transform="translate(166,196)"/>
<path d="M0 0 C-0.66 0.66 -1.32 1.32 -2 2 C-1.13375 2.59748047 -1.13375 2.59748047 -0.25 3.20703125 C0.4925 3.73683594 1.235 4.26664062 2 4.8125 C2.7425 5.33457031 3.485 5.85664063 4.25 6.39453125 C4.8275 6.92433594 5.405 7.45414062 6 8 C6 8.99 6 9.98 6 11 C5.34 11 4.68 11 4 11 C4 10.34 4 9.68 4 9 C3.34 9 2.68 9 2 9 C1.67 9.66 1.34 10.32 1 11 C0.7525 10.195625 0.505 9.39125 0.25 8.5625 C-0.7023933 5.85095021 -0.7023933 5.85095021 -2.9375 5.3125 C-3.618125 5.209375 -4.29875 5.10625 -5 5 C-8 3 -8 3 -9 1 C-6.04335481 -0.4783226 -3.25770263 -0.06032783 0 0 Z " fill="#4D4B69" transform="translate(137,290)"/>
<path d="M0 0 C1.65 0 3.3 0 5 0 C7.90617391 6.941085 9.4946164 12.45709983 9 20 C8.34 20.33 7.68 20.66 7 21 C6.96261719 20.43152344 6.92523438 19.86304688 6.88671875 19.27734375 C6.42724003 13.88072119 5.2551861 9.90257847 3 5 C3 4.01 3 3.02 3 2 C2.01 1.67 1.02 1.34 0 1 C0 0.67 0 0.34 0 0 Z " fill="#514E77" transform="translate(169,198)"/>
<path d="M0 0 C3.08555931 5.99480095 3.0668011 10.48065997 2 17 C1.855625 17.969375 1.71125 18.93875 1.5625 19.9375 C1.2840625 20.9584375 1.2840625 20.9584375 1 22 C0.34 22.33 -0.32 22.66 -1 23 C-1.13690844 15.27227893 -0.75166913 7.69118596 0 0 Z " fill="#111012" transform="translate(174,228)"/>
<path d="M0 0 C0.33 0 0.66 0 1 0 C1 1.98 1 3.96 1 6 C-0.65 5.67 -2.3 5.34 -4 5 C-3.34 6.98 -2.68 8.96 -2 11 C-2.99 11.33 -3.98 11.66 -5 12 C-4.34 13.65 -3.68 15.3 -3 17 C-4.32 16.67 -5.64 16.34 -7 16 C-6.835 14.948125 -6.67 13.89625 -6.5 12.8125 C-5.93769202 9.16575953 -5.93769202 9.16575953 -6 6.125 C-6 4 -6 4 -5 3 C-3.33382885 2.95936168 -1.66611905 2.957279 0 3 C0 2.01 0 1.02 0 0 Z " fill="#27101B" transform="translate(187,209)"/>
<path d="M0 0 C2.64 1.32 5.28 2.64 8 4 C8 4.66 8 5.32 8 6 C7.34 6 6.68 6 6 6 C6 9.3 6 12.6 6 16 C5.67 16 5.34 16 5 16 C4.67 12.37 4.34 8.74 4 5 C-0.29 4.01 -4.58 3.02 -9 2 C-5.52176885 0.84058962 -3.54104422 1.29179116 0 2 C0 1.34 0 0.68 0 0 Z " fill="#E2E1E1" transform="translate(104,280)"/>
<path d="M0 0 C0.33 0 0.66 0 1 0 C1.33 1.98 1.66 3.96 2 6 C2.66 5.34 3.32 4.68 4 4 C3.88630789 6.45933991 3.75957349 8.9167909 3.625 11.375 C3.5940625 12.07367188 3.563125 12.77234375 3.53125 13.4921875 C3.2265625 18.7734375 3.2265625 18.7734375 1 21 C1 18.03 1 15.06 1 12 C0.67 13.65 0.34 15.3 0 17 C-0.33 17 -0.66 17 -1 17 C-0.67 11.39 -0.34 5.78 0 0 Z " fill="#3F3E4C" transform="translate(172,244)"/>
<path d="M0 0 C0.33 0.99 0.66 1.98 1 3 C2.65 3.33 4.3 3.66 6 4 C6 4.33 6 4.66 6 5 C3.69 5.66 1.38 6.32 -1 7 C-1.33 8.98 -1.66 10.96 -2 13 C-3.32 12.34 -4.64 11.68 -6 11 C-5.01 11 -4.02 11 -3 11 C-3 8.69 -3 6.38 -3 4 C-3.99 3.67 -4.98 3.34 -6 3 C-6 2.34 -6 1.68 -6 1 C-3 0 -3 0 0 0 Z " fill="#3A252C" transform="translate(189,223)"/>
<path d="M0 0 C2.31 0 4.62 0 7 0 C7 1.65 7 3.3 7 5 C4.69 5.66 2.38 6.32 0 7 C0 4.69 0 2.38 0 0 Z " fill="#EFF1F0" transform="translate(177,237)"/>
<path d="M0 0 C0.625 2.875 0.625 2.875 1 6 C0.34 6.66 -0.32 7.32 -1 8 C-4.125 7.625 -4.125 7.625 -7 7 C-7 7.66 -7 8.32 -7 9 C-8.32 9.33 -9.64 9.66 -11 10 C-10.06409496 8.8944811 -9.12620142 7.79064547 -8.1875 6.6875 C-7.66542969 6.07261719 -7.14335938 5.45773438 -6.60546875 4.82421875 C-2.35974304 0 -2.35974304 0 0 0 Z " fill="#F2F3F0" transform="translate(127,200)"/>
<path d="M0 0 C1.32 0 2.64 0 4 0 C4 2.31 4 4.62 4 7 C1.36 7 -1.28 7 -4 7 C-3.34 6.67 -2.68 6.34 -2 6 C-2 4.68 -2 3.36 -2 2 C-1.34 2 -0.68 2 0 2 C0 1.34 0 0.68 0 0 Z " fill="#545380" transform="translate(182,227)"/>
<path d="M0 0 C0.33 1.32 0.66 2.64 1 4 C0.071875 4.28875 -0.85625 4.5775 -1.8125 4.875 C-5.09791667 5.8875 -5.09791667 5.8875 -8 8 C-8 7.34 -8 6.68 -8 6 C-8.66 6 -9.32 6 -10 6 C-9.67 4.35 -9.34 2.7 -9 1 C-7.68 1 -6.36 1 -5 1 C-5 1.66 -5 2.32 -5 3 C-4.34 3 -3.68 3 -3 3 C-2.67 2.34 -2.34 1.68 -2 1 C-1.67 1.33 -1.34 1.66 -1 2 C-0.67 1.34 -0.34 0.68 0 0 Z " fill="#E8AD9A" transform="translate(198,216)"/>
<path d="M0 0 C-1.59720719 4.3124594 -4.31633819 6.42143673 -8 9 C-10.1953125 8.63671875 -10.1953125 8.63671875 -12 8 C-10.90220176 6.84806377 -9.79650554 5.70365063 -8.6875 4.5625 C-8.07261719 3.92441406 -7.45773438 3.28632813 -6.82421875 2.62890625 C-4.64206633 0.68038899 -2.93869491 0 0 0 Z " fill="#222132" transform="translate(127,197)"/>
<path d="M0 0 C2 2 2 2 2 6 C3.32 6.66 4.64 7.32 6 8 C5.67 8.66 5.34 9.32 5 10 C2.5 10.6875 2.5 10.6875 0 11 C-1 10 -1 10 -1.125 6.625 C-1 3 -1 3 0 0 Z " fill="#D7D6D8" transform="translate(82,274)"/>
<path d="M0 0 C4.71746335 1.06600352 7.80392529 1.88759277 10.87890625 5.8984375 C8.01311866 7.06005529 6.86260462 6.8930529 3.86328125 5.90234375 C2.7959375 5.42667969 1.72859375 4.95101562 0.62890625 4.4609375 C-0.44875 3.98785156 -1.52640625 3.51476562 -2.63671875 3.02734375 C-3.4565625 2.65480469 -4.27640625 2.28226563 -5.12109375 1.8984375 C-2.12109375 -0.1015625 -2.12109375 -0.1015625 0 0 Z " fill="#2C2C33" transform="translate(158.12109375,191.1015625)"/>
<path d="M0 0 C1.21236328 0.01353516 1.21236328 0.01353516 2.44921875 0.02734375 C3.37154297 0.04474609 3.37154297 0.04474609 4.3125 0.0625 C4.6425 1.7125 4.9725 3.3625 5.3125 5.0625 C4.6525 4.7325 3.9925 4.4025 3.3125 4.0625 C1.77226004 3.99299459 0.22915012 3.97797643 -1.3125 4 C-2.12976563 4.00902344 -2.94703125 4.01804687 -3.7890625 4.02734375 C-4.41554688 4.03894531 -5.04203125 4.05054688 -5.6875 4.0625 C-5.6875 3.4025 -5.6875 2.7425 -5.6875 2.0625 C-6.3475 1.7325 -7.0075 1.4025 -7.6875 1.0625 C-4.80538698 0.10179566 -2.98899956 -0.04331883 0 0 Z " fill="#333143" transform="translate(100.6875,282.9375)"/>
<path d="M0 0 C0.99 1.32 1.98 2.64 3 4 C2.34 4 1.68 4 1 4 C1 4.99 1 5.98 1 7 C-0.375 8.5625 -0.375 8.5625 -2 10 C-2.66 10.66 -3.32 11.32 -4 12 C-4.66 11.01 -5.32 10.02 -6 9 C-4.02 6.03 -2.04 3.06 0 0 Z " fill="#EBEBE9" transform="translate(95,252)"/>
<path d="M0 0 C1.65 0 3.3 0 5 0 C4.6875 3.375 4.6875 3.375 4 7 C1 9 1 9 -1.6875 8.625 C-2.450625 8.41875 -3.21375 8.2125 -4 8 C-4 7.67 -4 7.34 -4 7 C-2.35 7 -0.7 7 1 7 C0.67 4.69 0.34 2.38 0 0 Z " fill="#241620" transform="translate(194,221)"/>
<path d="M0 0 C0.99 0.33 1.98 0.66 3 1 C-1.03872437 11.55808656 -1.03872437 11.55808656 -4 16 C-4.33 15.34 -4.66 14.68 -5 14 C-4.2578125 12.01171875 -4.2578125 12.01171875 -3.125 9.6875 C-1.61311133 6.4551863 -0.46081108 3.57128584 0 0 Z " fill="#56527A" transform="translate(97,235)"/>
<path d="M0 0 C0.33 0 0.66 0 1 0 C1.19294408 4.82360189 0.75747614 8.49646738 -1 13 C-1.66 13 -2.32 13 -3 13 C-3 10.69 -3 8.38 -3 6 C-2.34 6 -1.68 6 -1 6 C-1.0309375 4.7934375 -1.0309375 4.7934375 -1.0625 3.5625 C-1 1 -1 1 0 0 Z " fill="#181926" transform="translate(173,255)"/>
<path d="M0 0 C2.97 0.495 2.97 0.495 6 1 C5.360625 1.309375 4.72125 1.61875 4.0625 1.9375 C2.06389179 2.8345163 2.06389179 2.8345163 1 4 C1.66 4.66 2.32 5.32 3 6 C2.34 7.65 1.68 9.3 1 11 C0.34 11 -0.32 11 -1 11 C-1.0270043 9.54176788 -1.04639787 8.08339325 -1.0625 6.625 C-1.07410156 5.81289062 -1.08570313 5.00078125 -1.09765625 4.1640625 C-1 2 -1 2 0 0 Z " fill="#484458" transform="translate(189,229)"/>
<path d="M0 0 C0.33 0 0.66 0 1 0 C1 2.31 1 4.62 1 7 C1.556875 6.814375 2.11375 6.62875 2.6875 6.4375 C5.399133 5.92448835 7.34371039 6.3359276 10 7 C6.17482487 9.39073445 2.40334476 9.55966552 -2 10 C-1.34 6.7 -0.68 3.4 0 0 Z " fill="#373741" transform="translate(176,237)"/>
<path d="M0 0 C1.32 0 2.64 0 4 0 C4 1.65 4 3.3 4 5 C2.68 5.33 1.36 5.66 0 6 C-0.38218767 4.34385343 -0.71395102 2.67542976 -1 1 C-0.67 0.67 -0.34 0.34 0 0 Z " fill="#3F3F3F" transform="translate(142,211)"/>
<path d="M0 0 C0.78375 0.04125 1.5675 0.0825 2.375 0.125 C2.705 1.115 3.035 2.105 3.375 3.125 C1.725 3.125 0.075 3.125 -1.625 3.125 C-1.955 5.435 -2.285 7.745 -2.625 10.125 C-2.955 10.125 -3.285 10.125 -3.625 10.125 C-4.6015625 4.0703125 -4.6015625 4.0703125 -4.625 2.125 C-2.625 0.125 -2.625 0.125 0 0 Z " fill="#382335" transform="translate(191.625,204.875)"/>
<path d="M0 0 C0.66 0.99 1.32 1.98 2 3 C1.25 6.125 1.25 6.125 0 9 C-0.99 9.495 -0.99 9.495 -2 10 C-3.39195915 5.82412255 -1.82323219 3.86525224 0 0 Z " fill="#272836" transform="translate(85,262)"/>
<path d="M0 0 C2.97 0.495 2.97 0.495 6 1 C5.01 2.98 4.02 4.96 3 7 C2.34 6.67 1.68 6.34 1 6 C0.375 2.9375 0.375 2.9375 0 0 Z " fill="#B27A71" transform="translate(183,214)"/>
<path d="M0 0 C0.33 0 0.66 0 1 0 C1 1.98 1 3.96 1 6 C0.21625 5.938125 -0.5675 5.87625 -1.375 5.8125 C-2.674375 5.9053125 -2.674375 5.9053125 -4 6 C-4.66 6.99 -5.32 7.98 -6 9 C-6.042721 7.33388095 -6.04063832 5.66617115 -6 4 C-5 3 -5 3 -2.4375 2.9375 C-1.2309375 2.9684375 -1.2309375 2.9684375 0 3 C0 2.01 0 1.02 0 0 Z " fill="#2A1826" transform="translate(187,209)"/>
<path d="M0 0 C0.99 0.33 1.98 0.66 3 1 C3 2.65 3 4.3 3 6 C1.68 6 0.36 6 -1 6 C-1.042721 4.33388095 -1.04063832 2.66617115 -1 1 C-0.67 0.67 -0.34 0.34 0 0 Z " fill="#2C2C2A" transform="translate(165,210)"/>
<path d="M0 0 C0.66 0 1.32 0 2 0 C1.67 1.98 1.34 3.96 1 6 C0.34 6 -0.32 6 -1 6 C-1.33 6.66 -1.66 7.32 -2 8 C-2.6875 6.25 -2.6875 6.25 -3 4 C-1.6875 1.75 -1.6875 1.75 0 0 Z " fill="#272536" transform="translate(166,281)"/>
<path d="M0 0 C4.46840411 0.49648935 5.68987756 0.68987756 9 4 C5.7 3.67 2.4 3.34 -1 3 C-0.67 2.01 -0.34 1.02 0 0 Z " fill="#181726" transform="translate(154,189)"/>
<path d="M0 0 C0.33 0 0.66 0 1 0 C1.58052245 3.00988272 2.05989746 5.92889402 2 9 C0.0625 11.0625 0.0625 11.0625 -2 12 C-1.33333333 8 -0.66666667 4 0 0 Z " fill="#484669" transform="translate(172,266)"/>
<path d="M0 0 C1.32 0 2.64 0 4 0 C4 1.98 4 3.96 4 6 C3.01 6.33 2.02 6.66 1 7 C0.67 4.69 0.34 2.38 0 0 Z " fill="#555278" transform="translate(182,245)"/>
<path d="M0 0 C0.99 0.33 1.98 0.66 3 1 C2.1875 3.9375 2.1875 3.9375 1 7 C0.01 7.33 -0.98 7.66 -2 8 C-1.125 2.25 -1.125 2.25 0 0 Z " fill="#525079" transform="translate(108,210)"/>
<path d="M0 0 C0.99 0.33 1.98 0.66 3 1 C-0.465 3.97 -0.465 3.97 -4 7 C-4 4 -4 4 -2 1.8125 C-1.34 1.214375 -0.68 0.61625 0 0 Z " fill="#525078" transform="translate(122,195)"/>
<path d="M0 0 C0.33 0.66 0.66 1.32 1 2 C1.66 2 2.32 2 3 2 C3.33 1.34 3.66 0.68 4 0 C4 1.98 4 3.96 4 6 C3.01 6.33 2.02 6.66 1 7 C1.33 5.68 1.66 4.36 2 3 C1.01 3.33 0.02 3.66 -1 4 C-0.67 2.68 -0.34 1.36 0 0 Z " fill="#474461" transform="translate(166,278)"/>
<path d="M0 0 C2.97 0.495 2.97 0.495 6 1 C5.67 1.99 5.34 2.98 5 4 C3.35 3.67 1.7 3.34 0 3 C0 2.01 0 1.02 0 0 Z " fill="#303030" transform="translate(153,215)"/>
<path d="M0 0 C-0.33 0.66 -0.66 1.32 -1 2 C-3.31 1.67 -5.62 1.34 -8 1 C-8 0.34 -8 -0.32 -8 -1 C-4.59745511 -2.2151946 -3.06748874 -1.86240388 0 0 Z " fill="#504D73" transform="translate(160,188)"/>
<path d="M0 0 C2.31 0 4.62 0 7 0 C7.66 1.32 8.32 2.64 9 4 C5.85262818 3.30058404 2.97411124 2.23921302 0 1 C0 0.67 0 0.34 0 0 Z " fill="#161621" transform="translate(131,291)"/>
<path d="M0 0 C0.99 0.33 1.98 0.66 3 1 C0.6875 3.0625 0.6875 3.0625 -2 5 C-2.99 4.67 -3.98 4.34 -5 4 C-3.36587557 2.29159719 -2.13093906 1.06546953 0 0 Z " fill="#EEEFEB" transform="translate(125,290)"/>
<path d="M0 0 C0 2.31 0 4.62 0 7 C-0.99 6.67 -1.98 6.34 -3 6 C-3.6875 3.9375 -3.6875 3.9375 -4 2 C-1 0 -1 0 0 0 Z " fill="#1B1926" transform="translate(174,205)"/>
<path d="M0 0 C0.66 0 1.32 0 2 0 C1.34 1.98 0.68 3.96 0 6 C-0.99 6 -1.98 6 -3 6 C-1.125 1.125 -1.125 1.125 0 0 Z " fill="#141520" transform="translate(110,215)"/>
<path d="M0 0 C1.98 0.495 1.98 0.495 4 1 C4 2.32 4 3.64 4 5 C3.34 5 2.68 5 2 5 C2 4.01 2 3.02 2 2 C1.34 2 0.68 2 0 2 C-0.33 2.99 -0.66 3.98 -1 5 C-0.67 3.35 -0.34 1.7 0 0 Z " fill="#BA837B" transform="translate(190,207)"/>
<path d="M0 0 C-1.39332574 3.36720387 -2.9789286 4.9859524 -6 7 C-6 6.01 -6 5.02 -6 4 C-5.34 4 -4.68 4 -4 4 C-4 3.01 -4 2.02 -4 1 C-2 0 -2 0 0 0 Z " fill="#34343A" transform="translate(127,197)"/>
</svg>
